<svg width="360" height="466" viewBox="0 0 360 466" fill="none" xmlns="http://www.w3.org/2000/svg">
<g filter="url(#filter0_f_217_371)">
<circle cx="290.5" cy="73.5" r="203.5" fill="url(#paint0_linear_217_371)"/>
</g>
<g filter="url(#filter1_f_217_371)">
<circle cx="135.5" cy="118.5" r="203.5" fill="url(#paint1_linear_217_371)" fill-opacity="0.7"/>
</g>
<g clip-path="url(#clip0_217_371)">
<path d="M180 466C258.977 466 323 462.245 323 457.612C323 452.979 258.977 449.224 180 449.224C101.023 449.224 37 452.979 37 457.612C37 462.245 101.023 466 180 466Z" fill="#E6E6E6"/>
<path d="M199.109 244.447H197.57V202.359C197.57 195.899 195 189.703 190.426 185.135C185.852 180.566 179.648 178 173.178 178H83.8902C77.421 178 71.2168 180.566 66.6425 185.135C62.0681 189.703 59.4983 195.899 59.4983 202.359V433.253C59.4983 439.714 62.0681 445.91 66.6425 450.478C71.2168 455.046 77.421 457.612 83.8902 457.612H173.178C179.648 457.612 185.852 455.046 190.426 450.478C195 445.91 197.57 439.714 197.57 433.253V274.405H199.109V244.447Z" fill="#3F3D56"/>
<path d="M192.379 202.529V433.083C192.379 437.908 190.459 442.535 187.043 445.947C183.627 449.358 178.994 451.275 174.162 451.275H84.4458C79.6147 451.275 74.9816 449.358 71.5655 445.947C68.1494 442.535 66.2302 437.908 66.2299 433.084V202.529C66.2301 197.705 68.1493 193.078 71.5655 189.666C74.9817 186.254 79.615 184.338 84.4462 184.338H95.3301C94.7953 185.65 94.5916 187.074 94.7369 188.483C94.8823 189.893 95.3722 191.245 96.1637 192.421C96.9552 193.597 98.0239 194.56 99.2759 195.227C100.528 195.894 101.925 196.243 103.344 196.244H154.496C155.915 196.243 157.312 195.894 158.564 195.227C159.816 194.561 160.885 193.597 161.676 192.421C162.468 191.245 162.958 189.893 163.103 188.483C163.249 187.074 163.045 185.65 162.51 184.338H174.162C178.994 184.338 183.627 186.254 187.043 189.666C190.459 193.078 192.379 197.705 192.379 202.529Z" fill="white"/>
<path d="M107.675 377.088H105.788L106.418 340.283H107.048L107.675 377.088Z" fill="#E6E6E6"/>
<path d="M109.247 317.111L112.293 312.411C111.39 309.919 110.346 307.48 109.168 305.106L107.199 306.695L108.758 304.288C107.272 301.367 106.103 299.526 106.103 299.526C106.103 299.526 99.9956 309.138 97.9541 319.316L101.862 325.348L97.5367 321.858C97.3826 323.044 97.3033 324.238 97.2994 325.433C97.2994 337.486 101.241 347.257 106.104 347.257C110.966 347.257 114.908 337.485 114.908 325.433C114.908 321.697 114.061 317.787 112.892 314.171L109.247 317.111Z" fill="#CCCCCC"/>
<path d="M156.795 377.088H154.908L155.538 340.283H156.168L156.795 377.088Z" fill="#E6E6E6"/>
<path d="M158.366 317.111L161.412 312.411C160.509 309.919 159.466 307.48 158.288 305.106L156.318 306.695L157.878 304.288C156.391 301.367 155.222 299.526 155.222 299.526C155.222 299.526 149.114 309.139 147.075 319.316L150.98 325.347L146.654 321.857C146.5 323.043 146.421 324.237 146.417 325.432C146.417 337.485 150.359 347.256 155.221 347.256C160.084 347.256 164.026 337.484 164.026 325.432C164.026 321.696 163.179 317.786 162.01 314.17L158.366 317.111Z" fill="#CCCCCC"/>
<path d="M106.239 255.086C115.814 255.086 123.576 247.334 123.576 237.773C123.576 228.211 115.814 220.46 106.239 220.46C96.6647 220.46 88.9029 228.211 88.9029 237.773C88.9029 247.334 96.6647 255.086 106.239 255.086Z" fill="#E6E6E6"/>
<path d="M130.252 371.729H126.361L127.658 295.84H128.955L130.252 371.729Z" fill="#E6E6E6"/>
<path d="M133.493 248.062L139.773 238.371C137.911 233.234 135.76 228.205 133.33 223.31L129.27 226.585L132.485 221.623C129.419 215.599 127.01 211.804 127.01 211.804C127.01 211.804 114.416 231.623 110.208 252.608L118.264 265.045L109.343 257.849C109.026 260.294 108.862 262.756 108.854 265.221C108.854 290.074 116.982 310.22 127.008 310.22C137.034 310.22 145.161 290.074 145.161 265.221C145.161 257.516 143.416 249.456 141.008 241.999L133.493 248.062Z" fill="#CCCCCC"/>
<path d="M192.379 382.668V434.258C192.379 444.722 184.223 453.204 174.162 453.205H84.4458C74.3854 453.205 66.2295 444.722 66.2291 434.258V387.698C81.784 368.706 104.274 357.356 128.243 356.4C152.212 355.444 175.471 364.971 192.379 382.668Z" fill="#E6E6E6"/>
<path opacity="0.2" d="M129.402 433.559C144.063 433.559 155.947 421.69 155.947 407.049C155.947 392.408 144.063 380.539 129.402 380.539C114.741 380.539 102.856 392.408 102.856 407.049C102.856 421.69 114.741 433.559 129.402 433.559Z" fill="#40F8FF"/>
<path d="M129.402 428.395C141.207 428.395 150.776 418.838 150.776 407.049C150.776 395.26 141.207 385.703 129.402 385.703C117.597 385.703 108.028 395.26 108.028 407.049C108.028 418.838 117.597 428.395 129.402 428.395Z" fill="#279EFF"/>
<path d="M126.909 416.175L119.376 406.503L123.757 403.101L127.323 407.68L139.372 394.979L143.401 398.791L126.909 416.175Z" fill="white"/>
<path d="M242.99 373.849C250.644 373.849 256.849 367.652 256.849 360.008C256.849 352.364 250.644 346.168 242.99 346.168C235.336 346.168 229.131 352.364 229.131 360.008C229.131 367.652 235.336 373.849 242.99 373.849Z" fill="#2F2E41"/>
<path d="M248.606 437.706L249.674 442.736L269.61 441.016L268.034 433.593L248.606 437.706Z" fill="#FFB8B8"/>
<path d="M247.054 453.425L243.699 437.616L249.815 436.322L251.874 446.023C252.044 446.825 252.054 447.653 251.904 448.459C251.754 449.265 251.447 450.034 250.999 450.721C250.551 451.408 249.973 452.001 249.296 452.465C248.619 452.929 247.857 453.255 247.054 453.425Z" fill="#2F2E41"/>
<path d="M236.116 437.437L233.873 442.065L214.932 435.625L218.244 428.795L236.116 437.437Z" fill="#FFB8B8"/>
<path d="M230.948 444.735L235.275 435.809L240.902 438.53L233.85 453.075C232.358 452.353 231.214 451.069 230.67 449.505C230.125 447.941 230.225 446.225 230.948 444.735Z" fill="#2F2E41"/>
<path d="M198.797 428.297C199.446 428.418 200.113 428.395 200.752 428.23C201.39 428.065 201.985 427.763 202.494 427.344C203.003 426.925 203.413 426.399 203.697 425.805C203.98 425.21 204.13 424.561 204.135 423.902L235.37 395.143L227.613 389.143L199.333 419.316C198.224 419.381 197.178 419.849 196.392 420.633C195.606 421.417 195.135 422.461 195.069 423.569C195.003 424.676 195.346 425.769 196.033 426.641C196.721 427.512 197.704 428.101 198.798 428.297L198.797 428.297Z" fill="#FFB8B8"/>
<path d="M241.25 374.473C246.947 374.473 251.565 369.862 251.565 364.173C251.565 358.483 246.947 353.872 241.25 353.872C235.553 353.872 230.935 358.483 230.935 364.173C230.935 369.862 235.553 374.473 241.25 374.473Z" fill="#FFB8B8"/>
<path d="M250.507 424.724C243.272 424.724 234.558 423.202 229.182 416.974L229.061 416.834L229.187 416.697C229.229 416.652 233.182 412.138 229.233 404.089L223.803 405.757L218.398 398.632L221.392 389.661L233.646 379.805C235.401 378.4 237.539 377.554 239.781 377.376C243.84 376.984 247.794 375.859 251.45 374.057C253.123 373.245 254.966 372.843 256.826 372.883L257.067 372.889C257.632 372.905 258.189 373.036 258.702 373.273C259.216 373.51 259.676 373.849 260.055 374.269C260.433 374.689 260.723 375.181 260.905 375.716C261.087 376.251 261.159 376.817 261.116 377.38C260.285 388.13 258.818 414.096 263.128 423.037L263.239 423.268L262.991 423.331C258.894 424.252 254.708 424.718 250.508 424.723L250.507 424.724Z" fill="#279EFF"/>
<path d="M230.601 416.838C230.601 416.838 203.303 414.321 200.363 422.29C197.423 430.258 200.783 434.033 205.822 435.711C210.862 437.388 223.041 439.485 223.041 439.485L228.501 432.775L242.78 433.614C242.78 433.614 258.69 442.829 263.09 452.686C264.033 454.818 265.539 456.656 267.445 458.003C269.351 459.349 271.587 460.155 273.915 460.334C277.443 460.579 280.577 459.249 280.577 453.744C280.577 441.162 262.938 423.128 262.938 423.128L230.601 416.838Z" fill="#2F2E41"/>
<path d="M209.812 429.21C209.812 429.21 216.952 427.113 228.291 432.565L209.812 429.21Z" fill="#2F2E41"/>
<path d="M230.961 357.603C234.989 360.059 239.53 361.553 244.232 361.97L242.833 360.296C243.851 360.672 244.923 360.884 246.008 360.925C246.551 360.941 247.091 360.829 247.583 360.599C248.075 360.369 248.507 360.027 248.843 359.6C249.117 359.157 249.28 358.654 249.318 358.135C249.356 357.615 249.267 357.094 249.06 356.616C248.633 355.663 247.97 354.834 247.132 354.209C245.648 353.036 243.896 352.248 242.032 351.916C240.169 351.583 238.252 351.716 236.452 352.303C235.217 352.671 234.111 353.379 233.26 354.346C232.842 354.833 232.552 355.416 232.416 356.043C232.279 356.67 232.3 357.32 232.478 357.937" fill="#2F2E41"/>
<path d="M242.915 349.37C244.748 345.12 247.491 341.322 250.952 338.245C253.175 336.274 255.771 334.579 258.699 334.067C261.628 333.555 264.929 334.432 266.725 336.798C268.195 338.732 268.469 341.324 268.307 343.747C268.146 346.169 267.603 348.57 267.655 350.996C267.708 353.472 268.38 355.897 269.609 358.049C270.838 360.201 272.586 362.012 274.694 363.318C276.802 364.624 279.203 365.384 281.679 365.528C284.156 365.672 286.629 365.197 288.875 364.144C286.346 365.541 284.375 367.751 282.029 369.432C279.683 371.113 276.585 372.267 273.919 371.156C271.098 369.982 269.803 366.786 268.793 363.905L264.286 351.054C263.52 348.869 262.715 346.62 261.152 344.912C259.588 343.204 257.051 342.162 254.899 343.021C253.268 343.672 252.206 345.226 251.274 346.711C250.343 348.197 249.361 349.782 247.789 350.561C246.217 351.341 243.883 350.861 243.369 349.183" fill="#2F2E41"/>
<path d="M246.455 424.76C246.277 424.76 246.099 424.75 245.922 424.73C244.748 424.598 243.67 424.022 242.908 423.121C242.146 422.219 241.759 421.061 241.826 419.883C241.894 418.705 242.41 417.598 243.27 416.789C244.129 415.98 245.266 415.53 246.447 415.532C246.653 415.533 246.859 415.549 247.063 415.578L261.165 400.586L259.693 395.686L267.084 392.376L269.156 397.434C269.851 399.147 269.974 401.039 269.507 402.827C269.04 404.616 268.008 406.207 266.564 407.363L251.042 419.694C251.058 419.844 251.067 419.995 251.067 420.146C251.067 420.795 250.93 421.437 250.664 422.029C250.399 422.622 250.012 423.152 249.528 423.585C248.685 424.345 247.59 424.763 246.455 424.76Z" fill="#FFB8B8"/>
<path d="M257.479 374.897C257.968 374.68 258.495 374.564 259.03 374.556C259.565 374.548 260.097 374.647 260.592 374.849C261.087 375.051 261.537 375.351 261.913 375.731C262.289 376.111 262.585 376.563 262.782 377.06L270.078 395.448L258.739 402.997L257.479 374.897Z" fill="#279EFF"/>
</g>
<path d="M26.79 133.21C24.83 133.21 23.03 132.75 21.39 131.83C19.75 130.91 18.45 129.64 17.49 128.02C16.53 126.38 16.05 124.53 16.05 122.47C16.05 120.43 16.53 118.6 17.49 116.98C18.45 115.34 19.75 114.06 21.39 113.14C23.03 112.22 24.83 111.76 26.79 111.76C28.77 111.76 30.57 112.22 32.19 113.14C33.83 114.06 35.12 115.34 36.06 116.98C37.02 118.6 37.5 120.43 37.5 122.47C37.5 124.53 37.02 126.38 36.06 128.02C35.12 129.64 33.83 130.91 32.19 131.83C30.55 132.75 28.75 133.21 26.79 133.21ZM26.79 129.46C28.05 129.46 29.16 129.18 30.12 128.62C31.08 128.04 31.83 127.22 32.37 126.16C32.91 125.1 33.18 123.87 33.18 122.47C33.18 121.07 32.91 119.85 32.37 118.81C31.83 117.75 31.08 116.94 30.12 116.38C29.16 115.82 28.05 115.54 26.79 115.54C25.53 115.54 24.41 115.82 23.43 116.38C22.47 116.94 21.72 117.75 21.18 118.81C20.64 119.85 20.37 121.07 20.37 122.47C20.37 123.87 20.64 125.1 21.18 126.16C21.72 127.22 22.47 128.04 23.43 128.62C24.41 129.18 25.53 129.46 26.79 129.46ZM54.8747 112.06V115.45H49.2947V133H45.0947V115.45H39.5147V112.06H54.8747ZM73.2091 118.54C73.2091 119.66 72.9391 120.71 72.3991 121.69C71.8791 122.67 71.0491 123.46 69.9091 124.06C68.7891 124.66 67.3691 124.96 65.6491 124.96H62.1391V133H57.9391V112.06H65.6491C67.2691 112.06 68.6491 112.34 69.7891 112.9C70.9291 113.46 71.7791 114.23 72.3391 115.21C72.9191 116.19 73.2091 117.3 73.2091 118.54ZM65.4691 121.57C66.6291 121.57 67.4891 121.31 68.0491 120.79C68.6091 120.25 68.8891 119.5 68.8891 118.54C68.8891 116.5 67.7491 115.48 65.4691 115.48H62.1391V121.57H65.4691ZM102.15 112.06L94.4695 133H89.3695L81.6895 112.06H86.1895L91.9495 128.71L97.6795 112.06H102.15ZM120.118 124.33C120.118 124.93 120.078 125.47 119.998 125.95H107.848C107.948 127.15 108.368 128.09 109.108 128.77C109.848 129.45 110.758 129.79 111.838 129.79C113.398 129.79 114.508 129.12 115.168 127.78H119.698C119.218 129.38 118.298 130.7 116.938 131.74C115.578 132.76 113.908 133.27 111.928 133.27C110.328 133.27 108.888 132.92 107.608 132.22C106.348 131.5 105.358 130.49 104.638 129.19C103.938 127.89 103.588 126.39 103.588 124.69C103.588 122.97 103.938 121.46 104.638 120.16C105.338 118.86 106.318 117.86 107.578 117.16C108.838 116.46 110.288 116.11 111.928 116.11C113.508 116.11 114.918 116.45 116.158 117.13C117.418 117.81 118.388 118.78 119.068 120.04C119.768 121.28 120.118 122.71 120.118 124.33ZM115.768 123.13C115.748 122.05 115.358 121.19 114.598 120.55C113.838 119.89 112.908 119.56 111.808 119.56C110.768 119.56 109.888 119.88 109.168 120.52C108.468 121.14 108.038 122.01 107.878 123.13H115.768ZM127.383 118.96C127.923 118.08 128.623 117.39 129.483 116.89C130.363 116.39 131.363 116.14 132.483 116.14V120.55H131.373C130.053 120.55 129.053 120.86 128.373 121.48C127.713 122.1 127.383 123.18 127.383 124.72V133H123.183V116.38H127.383V118.96ZM137.442 114.4C136.702 114.4 136.082 114.17 135.582 113.71C135.102 113.23 134.862 112.64 134.862 111.94C134.862 111.24 135.102 110.66 135.582 110.2C136.082 109.72 136.702 109.48 137.442 109.48C138.182 109.48 138.792 109.72 139.272 110.2C139.772 110.66 140.022 111.24 140.022 111.94C140.022 112.64 139.772 113.23 139.272 113.71C138.792 114.17 138.182 114.4 137.442 114.4ZM139.512 116.38V133H135.312V116.38H139.512ZM151.282 119.83H148.372V133H144.112V119.83H142.222V116.38H144.112V115.54C144.112 113.5 144.692 112 145.852 111.04C147.012 110.08 148.762 109.63 151.102 109.69V113.23C150.082 113.21 149.372 113.38 148.972 113.74C148.572 114.1 148.372 114.75 148.372 115.69V116.38H151.282V119.83ZM156.134 114.4C155.394 114.4 154.774 114.17 154.274 113.71C153.794 113.23 153.554 112.64 153.554 111.94C153.554 111.24 153.794 110.66 154.274 110.2C154.774 109.72 155.394 109.48 156.134 109.48C156.874 109.48 157.484 109.72 157.964 110.2C158.464 110.66 158.714 111.24 158.714 111.94C158.714 112.64 158.464 113.23 157.964 113.71C157.484 114.17 156.874 114.4 156.134 114.4ZM158.204 116.38V133H154.004V116.38H158.204ZM161.273 124.69C161.273 122.97 161.623 121.47 162.323 120.19C163.023 118.89 163.993 117.89 165.233 117.19C166.473 116.47 167.893 116.11 169.493 116.11C171.553 116.11 173.253 116.63 174.593 117.67C175.953 118.69 176.863 120.13 177.323 121.99H172.793C172.553 121.27 172.143 120.71 171.563 120.31C171.003 119.89 170.303 119.68 169.463 119.68C168.263 119.68 167.313 120.12 166.613 121C165.913 121.86 165.563 123.09 165.563 124.69C165.563 126.27 165.913 127.5 166.613 128.38C167.313 129.24 168.263 129.67 169.463 129.67C171.163 129.67 172.273 128.91 172.793 127.39H177.323C176.863 129.19 175.953 130.62 174.593 131.68C173.233 132.74 171.533 133.27 169.493 133.27C167.893 133.27 166.473 132.92 165.233 132.22C163.993 131.5 163.023 130.5 162.323 129.22C161.623 127.92 161.273 126.41 161.273 124.69ZM179.32 124.63C179.32 122.95 179.65 121.46 180.31 120.16C180.99 118.86 181.9 117.86 183.04 117.16C184.2 116.46 185.49 116.11 186.91 116.11C188.15 116.11 189.23 116.36 190.15 116.86C191.09 117.36 191.84 117.99 192.4 118.75V116.38H196.63V133H192.4V130.57C191.86 131.35 191.11 132 190.15 132.52C189.21 133.02 188.12 133.27 186.88 133.27C185.48 133.27 184.2 132.91 183.04 132.19C181.9 131.47 180.99 130.46 180.31 129.16C179.65 127.84 179.32 126.33 179.32 124.63ZM192.4 124.69C192.4 123.67 192.2 122.8 191.8 122.08C191.4 121.34 190.86 120.78 190.18 120.4C189.5 120 188.77 119.8 187.99 119.8C187.21 119.8 186.49 119.99 185.83 120.37C185.17 120.75 184.63 121.31 184.21 122.05C183.81 122.77 183.61 123.63 183.61 124.63C183.61 125.63 183.81 126.51 184.21 127.27C184.63 128.01 185.17 128.58 185.83 128.98C186.51 129.38 187.23 129.58 187.99 129.58C188.77 129.58 189.5 129.39 190.18 129.01C190.86 128.61 191.4 128.05 191.8 127.33C192.2 126.59 192.4 125.71 192.4 124.69ZM205.622 119.83V127.87C205.622 128.43 205.752 128.84 206.012 129.1C206.292 129.34 206.752 129.46 207.392 129.46H209.342V133H206.702C203.162 133 201.392 131.28 201.392 127.84V119.83H199.412V116.38H201.392V112.27H205.622V116.38H209.342V119.83H205.622ZM214.493 114.4C213.753 114.4 213.133 114.17 212.633 113.71C212.153 113.23 211.913 112.64 211.913 111.94C211.913 111.24 212.153 110.66 212.633 110.2C213.133 109.72 213.753 109.48 214.493 109.48C215.233 109.48 215.843 109.72 216.323 110.2C216.823 110.66 217.073 111.24 217.073 111.94C217.073 112.64 216.823 113.23 216.323 113.71C215.843 114.17 215.233 114.4 214.493 114.4ZM216.563 116.38V133H212.363V116.38H216.563ZM228.093 133.27C226.493 133.27 225.053 132.92 223.773 132.22C222.493 131.5 221.483 130.49 220.743 129.19C220.023 127.89 219.663 126.39 219.663 124.69C219.663 122.99 220.033 121.49 220.773 120.19C221.533 118.89 222.563 117.89 223.863 117.19C225.163 116.47 226.613 116.11 228.213 116.11C229.813 116.11 231.263 116.47 232.563 117.19C233.863 117.89 234.883 118.89 235.623 120.19C236.383 121.49 236.763 122.99 236.763 124.69C236.763 126.39 236.373 127.89 235.593 129.19C234.833 130.49 233.793 131.5 232.473 132.22C231.173 132.92 229.713 133.27 228.093 133.27ZM228.093 129.61C228.853 129.61 229.563 129.43 230.223 129.07C230.903 128.69 231.443 128.13 231.843 127.39C232.243 126.65 232.443 125.75 232.443 124.69C232.443 123.11 232.023 121.9 231.183 121.06C230.363 120.2 229.353 119.77 228.153 119.77C226.953 119.77 225.943 120.2 225.123 121.06C224.323 121.9 223.923 123.11 223.923 124.69C223.923 126.27 224.313 127.49 225.093 128.35C225.893 129.19 226.893 129.61 228.093 129.61ZM249.053 116.14C251.033 116.14 252.633 116.77 253.853 118.03C255.073 119.27 255.683 121.01 255.683 123.25V133H251.483V123.82C251.483 122.5 251.153 121.49 250.493 120.79C249.833 120.07 248.933 119.71 247.793 119.71C246.633 119.71 245.713 120.07 245.033 120.79C244.373 121.49 244.043 122.5 244.043 123.82V133H239.843V116.38H244.043V118.45C244.603 117.73 245.313 117.17 246.173 116.77C247.053 116.35 248.013 116.14 249.053 116.14Z" fill="black"/>
<defs>
<filter id="filter0_f_217_371" x="86" y="-131" width="409" height="409" filterUnits="userSpaceOnUse" color-interpolation-filters="sRGB">
<feFlood flood-opacity="0" result="BackgroundImageFix"/>
<feBlend mode="normal" in="SourceGraphic" in2="BackgroundImageFix" result="shape"/>
<feGaussianBlur stdDeviation="0.5" result="effect1_foregroundBlur_217_371"/>
</filter>
<filter id="filter1_f_217_371" x="-69" y="-86" width="409" height="409" filterUnits="userSpaceOnUse" color-interpolation-filters="sRGB">
<feFlood flood-opacity="0" result="BackgroundImageFix"/>
<feBlend mode="normal" in="SourceGraphic" in2="BackgroundImageFix" result="shape"/>
<feGaussianBlur stdDeviation="0.5" result="effect1_foregroundBlur_217_371"/>
</filter>
<linearGradient id="paint0_linear_217_371" x1="343" y1="9.5" x2="290.5" y2="277" gradientUnits="userSpaceOnUse">
<stop stop-color="#279EFF"/>
<stop offset="1" stop-color="#D5FFD0" stop-opacity="0.4"/>
</linearGradient>
<linearGradient id="paint1_linear_217_371" x1="188" y1="54.5" x2="135.5" y2="322" gradientUnits="userSpaceOnUse">
<stop stop-color="#40F8FF"/>
<stop offset="1" stop-color="#279EFF" stop-opacity="0"/>
</linearGradient>
<clipPath id="clip0_217_371">
<rect width="286" height="288" fill="white" transform="translate(37 178)"/>
</clipPath>
</defs>
</svg>
