<svg width="360" height="800" viewBox="0 0 360 800" fill="none" xmlns="http://www.w3.org/2000/svg">
<rect width="360" height="800" fill="#D9D9D9"/>
<g filter="url(#filter0_f_1_5)">
<circle cx="298.5" cy="7.5" r="203.5" fill="url(#paint0_linear_1_5)"/>
</g>
<g filter="url(#filter1_f_1_5)">
<circle cx="143.5" cy="52.5" r="203.5" fill="url(#paint1_linear_1_5)" fill-opacity="0.7"/>
</g>
<g clip-path="url(#clip0_1_5)">
<path d="M188 400C266.977 400 331 396.245 331 391.612C331 386.979 266.977 383.224 188 383.224C109.023 383.224 45 386.979 45 391.612C45 396.245 109.023 400 188 400Z" fill="#E6E6E6"/>
<path d="M207.109 178.447H205.57V136.359C205.57 129.899 203 123.703 198.426 119.135C193.852 114.566 187.648 112 181.178 112H91.8901C85.421 112 79.2168 114.566 74.6425 119.135C70.0681 123.703 67.4983 129.899 67.4983 136.359V367.253C67.4983 373.714 70.0681 379.91 74.6425 384.478C79.2168 389.046 85.421 391.612 91.8901 391.612H181.178C187.648 391.612 193.852 389.046 198.426 384.478C203 379.91 205.57 373.714 205.57 367.253V208.405H207.109V178.447Z" fill="#3F3D56"/>
<path d="M200.379 136.529V367.083C200.379 371.908 198.459 376.535 195.043 379.947C191.627 383.358 186.994 385.275 182.162 385.275H92.4458C87.6147 385.275 82.9816 383.358 79.5655 379.947C76.1494 376.535 74.2302 371.908 74.23 367.084V136.529C74.2301 131.705 76.1493 127.078 79.5655 123.666C82.9817 120.254 87.615 118.338 92.4462 118.338H103.33C102.795 119.65 102.592 121.074 102.737 122.483C102.882 123.893 103.372 125.245 104.164 126.421C104.955 127.597 106.024 128.56 107.276 129.227C108.528 129.894 109.925 130.243 111.344 130.244H162.496C163.915 130.243 165.312 129.894 166.564 129.227C167.816 128.561 168.885 127.597 169.676 126.421C170.468 125.245 170.958 123.893 171.103 122.483C171.249 121.074 171.045 119.65 170.51 118.338H182.162C186.994 118.338 191.627 120.254 195.043 123.666C198.459 127.078 200.379 131.705 200.379 136.529Z" fill="white"/>
<path d="M115.675 311.088H113.788L114.418 274.283H115.048L115.675 311.088Z" fill="#E6E6E6"/>
<path d="M117.247 251.111L120.293 246.411C119.39 243.919 118.346 241.48 117.168 239.106L115.199 240.695L116.758 238.288C115.272 235.367 114.103 233.526 114.103 233.526C114.103 233.526 107.996 243.138 105.954 253.316L109.862 259.348L105.537 255.858C105.383 257.044 105.303 258.238 105.299 259.433C105.299 271.486 109.241 281.257 114.104 281.257C118.966 281.257 122.908 271.485 122.908 259.433C122.908 255.697 122.061 251.787 120.892 248.171L117.247 251.111Z" fill="#CCCCCC"/>
<path d="M164.795 311.088H162.908L163.538 274.283H164.168L164.795 311.088Z" fill="#E6E6E6"/>
<path d="M166.366 251.111L169.412 246.411C168.509 243.919 167.466 241.48 166.288 239.106L164.318 240.695L165.878 238.288C164.391 235.367 163.222 233.526 163.222 233.526C163.222 233.526 157.114 243.139 155.075 253.316L158.98 259.347L154.654 255.857C154.5 257.043 154.421 258.237 154.417 259.432C154.417 271.485 158.359 281.256 163.221 281.256C168.084 281.256 172.026 271.484 172.026 259.432C172.026 255.696 171.179 251.786 170.01 248.17L166.366 251.111Z" fill="#CCCCCC"/>
<path d="M114.239 189.086C123.814 189.086 131.576 181.334 131.576 171.773C131.576 162.211 123.814 154.46 114.239 154.46C104.665 154.46 96.9029 162.211 96.9029 171.773C96.9029 181.334 104.665 189.086 114.239 189.086Z" fill="#E6E6E6"/>
<path d="M138.252 305.729H134.361L135.658 229.84H136.955L138.252 305.729Z" fill="#E6E6E6"/>
<path d="M141.493 182.062L147.773 172.371C145.911 167.234 143.76 162.205 141.33 157.31L137.27 160.585L140.485 155.623C137.419 149.599 135.01 145.804 135.01 145.804C135.01 145.804 122.416 165.623 118.208 186.608L126.264 199.045L117.343 191.849C117.026 194.294 116.862 196.756 116.854 199.221C116.854 224.074 124.982 244.22 135.008 244.22C145.034 244.22 153.161 224.074 153.161 199.221C153.161 191.516 151.416 183.456 149.008 175.999L141.493 182.062Z" fill="#CCCCCC"/>
<path d="M200.379 316.668V368.258C200.379 378.722 192.223 387.204 182.162 387.205H92.4458C82.3854 387.205 74.2295 378.722 74.2291 368.258V321.698C89.784 302.706 112.274 291.356 136.243 290.4C160.212 289.444 183.471 298.971 200.379 316.668Z" fill="#E6E6E6"/>
<path opacity="0.2" d="M137.402 367.559C152.063 367.559 163.947 355.69 163.947 341.049C163.947 326.408 152.063 314.539 137.402 314.539C122.741 314.539 110.856 326.408 110.856 341.049C110.856 355.69 122.741 367.559 137.402 367.559Z" fill="#40F8FF"/>
<path d="M137.402 362.395C149.207 362.395 158.776 352.838 158.776 341.049C158.776 329.26 149.207 319.703 137.402 319.703C125.597 319.703 116.028 329.26 116.028 341.049C116.028 352.838 125.597 362.395 137.402 362.395Z" fill="#279EFF"/>
<path d="M134.909 350.175L127.376 340.503L131.757 337.101L135.323 341.68L147.372 328.979L151.401 332.791L134.909 350.175Z" fill="white"/>
<path d="M250.99 307.849C258.644 307.849 264.849 301.652 264.849 294.008C264.849 286.364 258.644 280.168 250.99 280.168C243.336 280.168 237.131 286.364 237.131 294.008C237.131 301.652 243.336 307.849 250.99 307.849Z" fill="#2F2E41"/>
<path d="M256.606 371.706L257.674 376.736L277.61 375.016L276.034 367.593L256.606 371.706Z" fill="#FFB8B8"/>
<path d="M255.054 387.425L251.699 371.616L257.815 370.322L259.874 380.023C260.044 380.825 260.054 381.653 259.904 382.459C259.754 383.265 259.447 384.034 258.999 384.721C258.551 385.408 257.973 386.001 257.296 386.465C256.619 386.929 255.857 387.255 255.054 387.425Z" fill="#2F2E41"/>
<path d="M244.116 371.437L241.873 376.065L222.932 369.625L226.244 362.795L244.116 371.437Z" fill="#FFB8B8"/>
<path d="M238.948 378.735L243.275 369.809L248.902 372.53L241.85 387.075C240.358 386.353 239.214 385.069 238.67 383.505C238.125 381.941 238.225 380.225 238.948 378.735Z" fill="#2F2E41"/>
<path d="M206.797 362.297C207.446 362.418 208.113 362.395 208.752 362.23C209.39 362.065 209.985 361.763 210.494 361.344C211.003 360.925 211.413 360.399 211.697 359.805C211.98 359.21 212.13 358.561 212.135 357.902L243.37 329.143L235.613 323.143L207.333 353.316C206.224 353.381 205.178 353.849 204.392 354.633C203.606 355.417 203.135 356.461 203.069 357.569C203.003 358.676 203.346 359.769 204.033 360.641C204.721 361.512 205.704 362.101 206.798 362.297L206.797 362.297Z" fill="#FFB8B8"/>
<path d="M249.25 308.473C254.947 308.473 259.565 303.862 259.565 298.173C259.565 292.483 254.947 287.872 249.25 287.872C243.553 287.872 238.935 292.483 238.935 298.173C238.935 303.862 243.553 308.473 249.25 308.473Z" fill="#FFB8B8"/>
<path d="M258.507 358.724C251.272 358.724 242.558 357.202 237.182 350.974L237.061 350.834L237.187 350.697C237.229 350.652 241.182 346.138 237.233 338.089L231.803 339.757L226.398 332.632L229.392 323.661L241.646 313.805C243.401 312.4 245.539 311.554 247.781 311.376C251.84 310.984 255.794 309.859 259.45 308.057C261.123 307.245 262.966 306.843 264.826 306.883L265.067 306.889C265.632 306.905 266.189 307.036 266.702 307.273C267.216 307.51 267.676 307.849 268.055 308.269C268.433 308.689 268.723 309.181 268.905 309.716C269.087 310.251 269.159 310.817 269.116 311.38C268.285 322.13 266.818 348.096 271.128 357.037L271.239 357.268L270.991 357.331C266.894 358.252 262.708 358.718 258.508 358.723L258.507 358.724Z" fill="#279EFF"/>
<path d="M238.601 350.838C238.601 350.838 211.303 348.321 208.363 356.29C205.423 364.258 208.783 368.033 213.822 369.711C218.862 371.388 231.041 373.485 231.041 373.485L236.501 366.775L250.78 367.614C250.78 367.614 266.69 376.829 271.09 386.686C272.033 388.818 273.539 390.656 275.445 392.003C277.351 393.349 279.587 394.155 281.915 394.334C285.443 394.579 288.577 393.249 288.577 387.744C288.577 375.162 270.938 357.128 270.938 357.128L238.601 350.838Z" fill="#2F2E41"/>
<path d="M217.812 363.21C217.812 363.21 224.952 361.113 236.291 366.565L217.812 363.21Z" fill="#2F2E41"/>
<path d="M238.961 291.603C242.989 294.059 247.53 295.553 252.232 295.97L250.833 294.296C251.851 294.672 252.923 294.884 254.008 294.925C254.551 294.941 255.091 294.829 255.583 294.599C256.075 294.369 256.507 294.027 256.843 293.6C257.117 293.157 257.28 292.654 257.318 292.135C257.356 291.615 257.267 291.094 257.06 290.616C256.633 289.663 255.97 288.834 255.132 288.209C253.648 287.036 251.896 286.248 250.032 285.916C248.169 285.583 246.252 285.716 244.452 286.303C243.217 286.671 242.111 287.379 241.26 288.346C240.842 288.833 240.552 289.416 240.416 290.043C240.279 290.67 240.3 291.32 240.478 291.937" fill="#2F2E41"/>
<path d="M250.915 283.37C252.748 279.12 255.491 275.322 258.952 272.245C261.175 270.274 263.771 268.579 266.699 268.067C269.628 267.555 272.929 268.432 274.725 270.798C276.195 272.732 276.469 275.324 276.307 277.747C276.146 280.169 275.603 282.57 275.655 284.996C275.708 287.472 276.38 289.897 277.609 292.049C278.838 294.201 280.586 296.012 282.694 297.318C284.802 298.624 287.203 299.384 289.679 299.528C292.156 299.672 294.629 299.197 296.875 298.144C294.346 299.541 292.375 301.751 290.029 303.432C287.683 305.113 284.585 306.267 281.919 305.156C279.098 303.982 277.803 300.786 276.793 297.905L272.286 285.054C271.52 282.869 270.715 280.62 269.152 278.912C267.588 277.204 265.051 276.162 262.899 277.021C261.268 277.672 260.206 279.226 259.274 280.711C258.343 282.197 257.361 283.782 255.789 284.561C254.217 285.341 251.883 284.861 251.369 283.183" fill="#2F2E41"/>
<path d="M254.454 358.76C254.277 358.76 254.099 358.75 253.922 358.73C252.748 358.598 251.67 358.022 250.908 357.121C250.146 356.219 249.759 355.061 249.826 353.883C249.894 352.705 250.41 351.598 251.269 350.789C252.129 349.98 253.266 349.53 254.447 349.532C254.653 349.533 254.859 349.549 255.063 349.578L269.165 334.586L267.693 329.686L275.084 326.376L277.156 331.434C277.851 333.147 277.974 335.039 277.507 336.827C277.04 338.616 276.008 340.207 274.564 341.363L259.042 353.694C259.058 353.844 259.067 353.995 259.067 354.146C259.067 354.795 258.93 355.437 258.664 356.029C258.399 356.622 258.012 357.152 257.528 357.585C256.685 358.345 255.59 358.763 254.454 358.76Z" fill="#FFB8B8"/>
<path d="M265.479 308.897C265.968 308.68 266.495 308.564 267.03 308.556C267.565 308.548 268.097 308.647 268.592 308.849C269.087 309.051 269.537 309.351 269.913 309.731C270.289 310.111 270.585 310.563 270.782 311.06L278.078 329.448L266.739 336.997L265.479 308.897Z" fill="#279EFF"/>
</g>
<path d="M34.79 67.21C32.83 67.21 31.03 66.75 29.39 65.83C27.75 64.91 26.45 63.64 25.49 62.02C24.53 60.38 24.05 58.53 24.05 56.47C24.05 54.43 24.53 52.6 25.49 50.98C26.45 49.34 27.75 48.06 29.39 47.14C31.03 46.22 32.83 45.76 34.79 45.76C36.77 45.76 38.57 46.22 40.19 47.14C41.83 48.06 43.12 49.34 44.06 50.98C45.02 52.6 45.5 54.43 45.5 56.47C45.5 58.53 45.02 60.38 44.06 62.02C43.12 63.64 41.83 64.91 40.19 65.83C38.55 66.75 36.75 67.21 34.79 67.21ZM34.79 63.46C36.05 63.46 37.16 63.18 38.12 62.62C39.08 62.04 39.83 61.22 40.37 60.16C40.91 59.1 41.18 57.87 41.18 56.47C41.18 55.07 40.91 53.85 40.37 52.81C39.83 51.75 39.08 50.94 38.12 50.38C37.16 49.82 36.05 49.54 34.79 49.54C33.53 49.54 32.41 49.82 31.43 50.38C30.47 50.94 29.72 51.75 29.18 52.81C28.64 53.85 28.37 55.07 28.37 56.47C28.37 57.87 28.64 59.1 29.18 60.16C29.72 61.22 30.47 62.04 31.43 62.62C32.41 63.18 33.53 63.46 34.79 63.46ZM62.8747 46.06V49.45H57.2947V67H53.0947V49.45H47.5147V46.06H62.8747ZM81.2091 52.54C81.2091 53.66 80.9391 54.71 80.3991 55.69C79.8791 56.67 79.0491 57.46 77.9091 58.06C76.7891 58.66 75.3691 58.96 73.6491 58.96H70.1391V67H65.9391V46.06H73.6491C75.2691 46.06 76.6491 46.34 77.7891 46.9C78.9291 47.46 79.7791 48.23 80.3391 49.21C80.9191 50.19 81.2091 51.3 81.2091 52.54ZM73.4691 55.57C74.6291 55.57 75.4891 55.31 76.0491 54.79C76.6091 54.25 76.8891 53.5 76.8891 52.54C76.8891 50.5 75.7491 49.48 73.4691 49.48H70.1391V55.57H73.4691ZM110.15 46.06L102.47 67H97.3695L89.6895 46.06H94.1895L99.9495 62.71L105.68 46.06H110.15ZM128.118 58.33C128.118 58.93 128.078 59.47 127.998 59.95H115.848C115.948 61.15 116.368 62.09 117.108 62.77C117.848 63.45 118.758 63.79 119.838 63.79C121.398 63.79 122.508 63.12 123.168 61.78H127.698C127.218 63.38 126.298 64.7 124.938 65.74C123.578 66.76 121.908 67.27 119.928 67.27C118.328 67.27 116.888 66.92 115.608 66.22C114.348 65.5 113.358 64.49 112.638 63.19C111.938 61.89 111.588 60.39 111.588 58.69C111.588 56.97 111.938 55.46 112.638 54.16C113.338 52.86 114.318 51.86 115.578 51.16C116.838 50.46 118.288 50.11 119.928 50.11C121.508 50.11 122.918 50.45 124.158 51.13C125.418 51.81 126.388 52.78 127.068 54.04C127.768 55.28 128.118 56.71 128.118 58.33ZM123.768 57.13C123.748 56.05 123.358 55.19 122.598 54.55C121.838 53.89 120.908 53.56 119.808 53.56C118.768 53.56 117.888 53.88 117.168 54.52C116.468 55.14 116.038 56.01 115.878 57.13H123.768ZM135.383 52.96C135.923 52.08 136.623 51.39 137.483 50.89C138.363 50.39 139.363 50.14 140.483 50.14V54.55H139.373C138.053 54.55 137.053 54.86 136.373 55.48C135.713 56.1 135.383 57.18 135.383 58.72V67H131.183V50.38H135.383V52.96ZM145.442 48.4C144.702 48.4 144.082 48.17 143.582 47.71C143.102 47.23 142.862 46.64 142.862 45.94C142.862 45.24 143.102 44.66 143.582 44.2C144.082 43.72 144.702 43.48 145.442 43.48C146.182 43.48 146.792 43.72 147.272 44.2C147.772 44.66 148.022 45.24 148.022 45.94C148.022 46.64 147.772 47.23 147.272 47.71C146.792 48.17 146.182 48.4 145.442 48.4ZM147.512 50.38V67H143.312V50.38H147.512ZM159.282 53.83H156.372V67H152.112V53.83H150.222V50.38H152.112V49.54C152.112 47.5 152.692 46 153.852 45.04C155.012 44.08 156.762 43.63 159.102 43.69V47.23C158.082 47.21 157.372 47.38 156.972 47.74C156.572 48.1 156.372 48.75 156.372 49.69V50.38H159.282V53.83ZM164.134 48.4C163.394 48.4 162.774 48.17 162.274 47.71C161.794 47.23 161.554 46.64 161.554 45.94C161.554 45.24 161.794 44.66 162.274 44.2C162.774 43.72 163.394 43.48 164.134 43.48C164.874 43.48 165.484 43.72 165.964 44.2C166.464 44.66 166.714 45.24 166.714 45.94C166.714 46.64 166.464 47.23 165.964 47.71C165.484 48.17 164.874 48.4 164.134 48.4ZM166.204 50.38V67H162.004V50.38H166.204ZM169.273 58.69C169.273 56.97 169.623 55.47 170.323 54.19C171.023 52.89 171.993 51.89 173.233 51.19C174.473 50.47 175.893 50.11 177.493 50.11C179.553 50.11 181.253 50.63 182.593 51.67C183.953 52.69 184.863 54.13 185.323 55.99H180.793C180.553 55.27 180.143 54.71 179.563 54.31C179.003 53.89 178.303 53.68 177.463 53.68C176.263 53.68 175.313 54.12 174.613 55C173.913 55.86 173.563 57.09 173.563 58.69C173.563 60.27 173.913 61.5 174.613 62.38C175.313 63.24 176.263 63.67 177.463 63.67C179.163 63.67 180.273 62.91 180.793 61.39H185.323C184.863 63.19 183.953 64.62 182.593 65.68C181.233 66.74 179.533 67.27 177.493 67.27C175.893 67.27 174.473 66.92 173.233 66.22C171.993 65.5 171.023 64.5 170.323 63.22C169.623 61.92 169.273 60.41 169.273 58.69ZM187.32 58.63C187.32 56.95 187.65 55.46 188.31 54.16C188.99 52.86 189.9 51.86 191.04 51.16C192.2 50.46 193.49 50.11 194.91 50.11C196.15 50.11 197.23 50.36 198.15 50.86C199.09 51.36 199.84 51.99 200.4 52.75V50.38H204.63V67H200.4V64.57C199.86 65.35 199.11 66 198.15 66.52C197.21 67.02 196.12 67.27 194.88 67.27C193.48 67.27 192.2 66.91 191.04 66.19C189.9 65.47 188.99 64.46 188.31 63.16C187.65 61.84 187.32 60.33 187.32 58.63ZM200.4 58.69C200.4 57.67 200.2 56.8 199.8 56.08C199.4 55.34 198.86 54.78 198.18 54.4C197.5 54 196.77 53.8 195.99 53.8C195.21 53.8 194.49 53.99 193.83 54.37C193.17 54.75 192.63 55.31 192.21 56.05C191.81 56.77 191.61 57.63 191.61 58.63C191.61 59.63 191.81 60.51 192.21 61.27C192.63 62.01 193.17 62.58 193.83 62.98C194.51 63.38 195.23 63.58 195.99 63.58C196.77 63.58 197.5 63.39 198.18 63.01C198.86 62.61 199.4 62.05 199.8 61.33C200.2 60.59 200.4 59.71 200.4 58.69ZM213.622 53.83V61.87C213.622 62.43 213.752 62.84 214.012 63.1C214.292 63.34 214.752 63.46 215.392 63.46H217.342V67H214.702C211.162 67 209.392 65.28 209.392 61.84V53.83H207.412V50.38H209.392V46.27H213.622V50.38H217.342V53.83H213.622ZM222.493 48.4C221.753 48.4 221.133 48.17 220.633 47.71C220.153 47.23 219.913 46.64 219.913 45.94C219.913 45.24 220.153 44.66 220.633 44.2C221.133 43.72 221.753 43.48 222.493 43.48C223.233 43.48 223.843 43.72 224.323 44.2C224.823 44.66 225.073 45.24 225.073 45.94C225.073 46.64 224.823 47.23 224.323 47.71C223.843 48.17 223.233 48.4 222.493 48.4ZM224.563 50.38V67H220.363V50.38H224.563ZM236.093 67.27C234.493 67.27 233.053 66.92 231.773 66.22C230.493 65.5 229.483 64.49 228.743 63.19C228.023 61.89 227.663 60.39 227.663 58.69C227.663 56.99 228.033 55.49 228.773 54.19C229.533 52.89 230.563 51.89 231.863 51.19C233.163 50.47 234.613 50.11 236.213 50.11C237.813 50.11 239.263 50.47 240.563 51.19C241.863 51.89 242.883 52.89 243.623 54.19C244.383 55.49 244.763 56.99 244.763 58.69C244.763 60.39 244.373 61.89 243.593 63.19C242.833 64.49 241.793 65.5 240.473 66.22C239.173 66.92 237.713 67.27 236.093 67.27ZM236.093 63.61C236.853 63.61 237.563 63.43 238.223 63.07C238.903 62.69 239.443 62.13 239.843 61.39C240.243 60.65 240.443 59.75 240.443 58.69C240.443 57.11 240.023 55.9 239.183 55.06C238.363 54.2 237.353 53.77 236.153 53.77C234.953 53.77 233.943 54.2 233.123 55.06C232.323 55.9 231.923 57.11 231.923 58.69C231.923 60.27 232.313 61.49 233.093 62.35C233.893 63.19 234.893 63.61 236.093 63.61ZM257.053 50.14C259.033 50.14 260.633 50.77 261.853 52.03C263.073 53.27 263.683 55.01 263.683 57.25V67H259.483V57.82C259.483 56.5 259.153 55.49 258.493 54.79C257.833 54.07 256.933 53.71 255.793 53.71C254.633 53.71 253.713 54.07 253.033 54.79C252.373 55.49 252.043 56.5 252.043 57.82V67H247.843V50.38H252.043V52.45C252.603 51.73 253.313 51.17 254.173 50.77C255.053 50.35 256.013 50.14 257.053 50.14Z" fill="black"/>
<defs>
<filter id="filter0_f_1_5" x="94" y="-197" width="409" height="409" filterUnits="userSpaceOnUse" color-interpolation-filters="sRGB">
<feFlood flood-opacity="0" result="BackgroundImageFix"/>
<feBlend mode="normal" in="SourceGraphic" in2="BackgroundImageFix" result="shape"/>
<feGaussianBlur stdDeviation="0.5" result="effect1_foregroundBlur_1_5"/>
</filter>
<filter id="filter1_f_1_5" x="-61" y="-152" width="409" height="409" filterUnits="userSpaceOnUse" color-interpolation-filters="sRGB">
<feFlood flood-opacity="0" result="BackgroundImageFix"/>
<feBlend mode="normal" in="SourceGraphic" in2="BackgroundImageFix" result="shape"/>
<feGaussianBlur stdDeviation="0.5" result="effect1_foregroundBlur_1_5"/>
</filter>
<linearGradient id="paint0_linear_1_5" x1="351" y1="-56.5" x2="298.5" y2="211" gradientUnits="userSpaceOnUse">
<stop stop-color="#279EFF"/>
<stop offset="1" stop-color="#D5FFD0" stop-opacity="0.4"/>
</linearGradient>
<linearGradient id="paint1_linear_1_5" x1="196" y1="-11.5" x2="143.5" y2="256" gradientUnits="userSpaceOnUse">
<stop stop-color="#40F8FF"/>
<stop offset="1" stop-color="#279EFF" stop-opacity="0"/>
</linearGradient>
<clipPath id="clip0_1_5">
<rect width="286" height="288" fill="white" transform="translate(45 112)"/>
</clipPath>
</defs>
</svg>
