<svg width="360" height="747" viewBox="0 0 360 747" fill="none" xmlns="http://www.w3.org/2000/svg">
<g filter="url(#filter0_f_451_617)">
<circle cx="349" cy="76" r="90" fill="url(#paint0_linear_451_617)" fill-opacity="0.7"/>
</g>
<g filter="url(#filter1_f_451_617)">
<circle cx="-12" cy="603" r="140" fill="url(#paint1_linear_451_617)"/>
</g>
<g clip-path="url(#clip0_451_617)">
<mask id="mask0_451_617" style="mask-type:luminance" maskUnits="userSpaceOnUse" x="30" y="125" width="300" height="300">
<path d="M330 125H30V425H330V125Z" fill="white"/>
</mask>
<g mask="url(#mask0_451_617)">
<path d="M63.906 266.532C67.2486 279.616 79.5023 324.893 121.308 356.798C187.255 407.127 290.635 396.628 304.316 364.146C310.663 349.077 293.282 339.782 288.758 297.66C284.516 258.157 298.127 250.729 292.769 226.977C282.239 180.301 216.335 150.301 163.998 146.146C147.617 144.845 94.1909 140.604 70.5695 172.39C48.3235 202.326 57.8373 242.777 63.906 266.532Z" fill="#F4F6FA"/>
<path d="M216.767 193.38L74.1271 206.42C82.7449 211.743 96.0816 222.414 104.109 244.033C119.915 286.595 102.354 326.239 121.35 354.867C126.404 362.484 137.302 376.279 154.138 379.661L290.362 361.088C245.755 348.155 233.657 323.704 231.33 302.857C228.995 281.936 235.638 256.912 227.68 223.24C224.426 209.47 219.984 199.562 216.767 193.38Z" fill="url(#paint2_linear_451_617)"/>
<path d="M91.7601 170.166C133.646 167.536 175.533 164.906 217.419 162.276C223.058 167.054 230.979 175.549 236.139 190.243C248.017 224.059 234.182 257.505 238.179 290.375C240.729 311.336 251.245 337.597 288.915 355.15C243.936 361.036 198.958 366.922 153.98 372.807C144.687 369.247 132.3 361.848 125.132 344.631C117.534 326.377 122.854 314.028 120.236 256.65C118.394 216.268 114.77 200.342 107.222 187.574C101.995 178.733 96.1046 173.378 91.7601 170.166Z" fill="white"/>
<path d="M229.067 287.284C229.094 287.615 229.122 287.946 229.152 288.277C229.18 288.589 228.955 288.866 228.644 288.9L130.394 299.691C130.051 299.729 129.753 299.461 129.756 299.117C129.759 298.784 129.762 298.448 129.765 298.109C129.767 297.817 129.987 297.572 130.277 297.54L228.433 286.759C228.755 286.724 229.041 286.961 229.067 287.284Z" fill="#D8DEE7"/>
<path d="M228.674 276.709C228.673 277.043 228.673 277.378 228.675 277.712C228.676 278.007 228.455 278.254 228.162 278.286L130.424 288.695C130.086 288.731 129.79 288.469 129.789 288.128C129.788 287.795 129.786 287.459 129.784 287.121C129.783 286.826 130.004 286.576 130.298 286.545L228.04 276.135C228.38 276.099 228.676 276.366 228.674 276.709Z" fill="#D8DEE7"/>
<path d="M230.471 297.751C230.533 298.079 230.597 298.406 230.662 298.731C230.729 299.062 230.5 299.377 230.165 299.415L130.261 310.712C129.918 310.751 129.618 310.48 129.622 310.134C129.626 309.802 129.63 309.466 129.635 309.125C129.638 308.836 129.857 308.593 130.145 308.56L229.843 297.287C230.142 297.253 230.415 297.456 230.471 297.751Z" fill="#D8DEE7"/>
<path d="M172.786 358.237L242.821 349.112C243.016 349.087 243.212 349.163 243.339 349.32C243.582 349.621 243.883 349.857 244.223 350.041C244.744 350.325 244.578 351.056 244.037 351.125L174.846 360.142C174.159 359.508 173.472 358.873 172.786 358.237Z" fill="#D8DEE7"/>
<path d="M229.043 266.059C229.022 266.396 229.001 266.734 228.982 267.072C228.966 267.353 228.749 267.581 228.469 267.61L130.298 277.729C129.964 277.763 129.671 277.506 129.665 277.17C129.659 276.837 129.652 276.502 129.645 276.165C129.639 275.866 129.863 275.611 130.161 275.58L228.412 265.453C228.765 265.417 229.065 265.705 229.043 266.059Z" fill="#D8DEE7"/>
<path d="M242.614 328.216C242.818 328.526 243.024 328.834 243.233 329.142C243.475 329.498 243.257 329.983 242.83 330.035L134.548 343.279C134.3 343.31 134.06 343.177 133.956 342.95C133.809 342.632 133.665 342.31 133.524 341.985C133.37 341.631 133.597 341.229 133.98 341.182L242.067 327.962C242.283 327.935 242.495 328.034 242.614 328.216Z" fill="#D8DEE7"/>
<path d="M237.041 318.251C237.19 318.568 237.34 318.884 237.493 319.199C237.666 319.555 237.439 319.974 237.046 320.021L131.179 332.652C130.878 332.688 130.598 332.484 130.545 332.185C130.486 331.852 130.431 331.516 130.378 331.178C130.329 330.857 130.557 330.56 130.879 330.521L236.455 317.925C236.7 317.896 236.936 318.027 237.041 318.251Z" fill="#D8DEE7"/>
<path d="M233.069 308.084C233.171 308.406 233.275 308.728 233.381 309.049C233.495 309.395 233.266 309.758 232.904 309.8L130.255 321.731C129.919 321.77 129.621 321.513 129.614 321.175C129.606 320.842 129.6 320.505 129.595 320.164C129.591 319.869 129.811 319.617 130.104 319.583L232.456 307.686C232.73 307.655 232.986 307.822 233.069 308.084Z" fill="#D8DEE7"/>
<path d="M229.899 255.373C229.867 255.711 229.836 256.05 229.804 256.389C229.779 256.663 229.564 256.881 229.29 256.908L130.011 266.792C129.68 266.825 129.391 266.573 129.38 266.241C129.369 265.908 129.357 265.574 129.346 265.238C129.335 264.936 129.561 264.675 129.863 264.645L229.271 254.748C229.63 254.712 229.933 255.013 229.899 255.373Z" fill="#D8DEE7"/>
<path d="M226.936 191.786C227.191 191.767 227.43 191.918 227.519 192.158C227.64 192.485 227.76 192.813 227.876 193.145C227.877 193.147 227.878 193.15 227.879 193.152C228.003 193.506 227.753 193.881 227.378 193.91L123.011 201.86C122.738 201.881 122.488 201.703 122.415 201.439C122.323 201.111 122.231 200.785 122.137 200.462C122.036 200.111 122.281 199.758 122.644 199.73L226.936 191.786Z" fill="#D8DEE7"/>
<path d="M230.466 202.468C230.535 202.8 230.602 203.133 230.667 203.465C230.732 203.801 230.488 204.12 230.147 204.147L125.435 212.562C125.141 212.586 124.877 212.38 124.824 212.09C124.764 211.759 124.703 211.43 124.641 211.104C124.578 210.768 124.818 210.454 125.159 210.426L229.855 202.013C230.144 201.989 230.407 202.185 230.466 202.468Z" fill="#D8DEE7"/>
<path d="M222.484 183.256L119.235 191.105C118.992 191.123 118.764 190.984 118.667 190.761C117.493 188.068 116.197 185.545 114.761 183.116C114.037 181.893 113.284 180.701 112.504 179.54C112.257 179.172 112.497 178.674 112.94 178.644L214.543 171.797C214.711 171.786 214.876 171.847 214.994 171.967C218.022 175.035 220.675 178.518 222.939 182.395C223.152 182.76 222.905 183.224 222.484 183.256Z" fill="#D8DEE7"/>
<path d="M230.944 244.683C230.911 245.021 230.878 245.36 230.845 245.699C230.818 245.973 230.601 246.19 230.327 246.216L129.571 255.883C129.244 255.914 128.958 255.664 128.942 255.336C128.927 255.001 128.911 254.667 128.895 254.335C128.88 254.028 129.109 253.766 129.414 253.736L230.316 244.056C230.676 244.022 230.979 244.323 230.944 244.683Z" fill="#D8DEE7"/>
<path d="M231.859 234.022C231.836 234.36 231.812 234.697 231.787 235.035C231.766 235.316 231.545 235.541 231.265 235.567L128.98 244.999C128.657 245.029 128.374 244.785 128.353 244.461C128.332 244.127 128.311 243.793 128.29 243.462C128.27 243.152 128.501 242.883 128.81 242.854L231.231 233.41C231.585 233.377 231.884 233.668 231.859 234.022Z" fill="#D8DEE7"/>
<path d="M232.312 223.416C232.309 223.753 232.304 224.09 232.298 224.428C232.293 224.721 232.066 224.964 231.773 224.99L128.177 234.146C127.861 234.174 127.582 233.938 127.554 233.621C127.526 233.287 127.496 232.955 127.467 232.625C127.439 232.309 127.672 232.031 127.988 232.003L231.686 222.838C232.024 222.808 232.316 223.077 232.312 223.416Z" fill="#D8DEE7"/>
<path d="M231.96 212.892C231.987 213.226 232.013 213.561 232.037 213.897C232.06 214.21 231.824 214.484 231.511 214.51L127.056 223.33C126.748 223.356 126.475 223.132 126.438 222.826C126.396 222.493 126.355 222.162 126.313 221.834C126.271 221.509 126.508 221.217 126.834 221.19L231.337 212.367C231.654 212.34 231.934 212.575 231.96 212.892Z" fill="#D8DEE7"/>
<path d="M105 400.931C127.091 400.931 145 398.26 145 394.966C145 391.672 127.091 389.001 105 389.001C82.9085 389.001 64.9999 391.672 64.9999 394.966C64.9999 398.26 82.9085 400.931 105 400.931Z" fill="#E6E6E6"/>
<path d="M115.439 388.692C115.439 388.692 124.302 392.721 124.447 393.364C124.592 394.007 118.747 393.148 116.361 393.241C113.975 393.334 112.012 392.628 112.228 391.618C112.444 390.607 113.279 388.065 113.279 388.065L115.439 388.692Z" fill="url(#paint3_linear_451_617)"/>
<path d="M115.763 385.423L115.224 389.413C115.224 389.413 113.821 389.913 112.878 389.322L112.476 384.945L115.763 385.423Z" fill="url(#paint4_linear_451_617)"/>
<path d="M120.639 305.249C121.106 317.153 121.125 330.087 120.44 343.903C119.669 359.462 118.12 373.842 116.166 386.878C115.44 386.901 114.677 386.905 113.88 386.883C113.342 386.868 112.821 386.842 112.317 386.807C111.303 384.104 110.105 380.549 109.032 376.303C107.905 371.839 107.224 367.834 106.74 364.005C105.033 350.522 107.033 349.346 105.648 339.353C104.421 330.503 102.676 330.158 100.628 317.593C98.4061 303.96 100.06 301.915 100.865 301.176C104.289 298.031 112.334 300.172 120.639 305.249Z" fill="url(#paint5_linear_451_617)"/>
<g style="mix-blend-mode:multiply" opacity="0.3">
<path d="M100.865 301.176C104.131 298.176 111.601 299.992 119.491 304.571C110.414 314.377 109.425 320.739 110.513 324.866C111.743 329.531 115.481 330.875 115.467 335.976C115.45 342.244 109.792 343.905 109.912 350.538C109.992 354.924 112.478 354.879 113.065 360.297C113.76 366.707 110.512 368.915 111.564 373.658C112.016 375.699 113.308 378.365 116.987 381.111C116.722 383.059 116.45 384.987 116.166 386.878C115.441 386.901 114.677 386.905 113.881 386.883C113.342 386.868 112.821 386.842 112.317 386.807C111.303 384.104 110.105 380.549 109.033 376.304C107.905 371.839 107.224 367.834 106.739 364.005C105.033 350.522 107.033 349.345 105.648 339.353C104.421 330.503 102.676 330.158 100.628 317.593C98.4062 303.96 100.06 301.915 100.865 301.176Z" fill="url(#paint6_linear_451_617)"/>
</g>
<path d="M88.5689 388.841L87.8501 390.653C87.6491 391.16 87.6641 391.724 87.8943 392.218C88.4948 393.508 89.6824 396.019 90.1162 396.651C90.7071 397.512 96.4519 397.044 96.4519 397.044C96.4519 397.044 96.8265 396.244 95.4994 395.602C94.1725 394.959 93.395 394.961 92.7522 393.774C92.1096 392.587 91.1855 389.066 91.1855 389.066L88.5689 388.841Z" fill="url(#paint7_linear_451_617)"/>
<path d="M92.04 383.936C91.7232 384.299 90.9092 390.129 90.9092 390.129C90.9092 390.129 90.4587 390.986 89.143 390.081C87.8276 389.176 88.5485 389.676 88.5485 389.676L87.7752 384.227L92.04 383.936Z" fill="url(#paint8_linear_451_617)"/>
<path d="M114.533 302.345C108.886 314.992 103.134 330.5 98.759 348.607C95.4529 362.291 93.5463 374.921 92.4855 386.061C92.1155 386.322 91.2305 386.868 89.9839 386.928C88.2835 387.01 87.0959 386.13 86.7821 385.882C84.1882 378.504 83.1539 372.045 82.7232 367.326C82.4476 364.305 82.016 359.269 82.8016 352.812C83.6815 345.579 85.071 344.93 86.5256 337.183C88.0352 329.142 86.9984 327.392 88.0432 317.483C88.4723 313.412 89.3212 307.316 91.1958 299.868C98.9748 300.694 106.754 301.52 114.533 302.345Z" fill="url(#paint9_linear_451_617)"/>
<path d="M134.794 264.137C134.794 264.137 134.794 264.136 134.794 264.136C134.792 264.134 134.791 264.132 134.79 264.13C134.537 263.715 134.255 263.323 133.947 262.956C133.264 262.072 132.477 261.201 131.564 260.344C128.823 257.769 125.83 256.142 121.532 253.804C115.221 250.372 110.141 248.784 105.601 247.392C96.5172 244.607 91.9155 243.253 89.003 245.184C85.4469 247.541 85.1979 252.965 85.0868 256.347C83.3982 307.807 86.7606 311.167 89.0911 311.676C90.3505 311.951 90.3505 311.184 96.2755 309.866C101.524 308.698 104.148 308.114 107.043 308.485C112.004 309.122 113.062 311.562 117.316 311.318C119.915 311.168 121.984 310.115 123.312 309.262C123.111 300.1 122.042 279.01 122.851 277.963C124.629 278.715 126.65 278.94 128.677 278.487C133.852 277.33 137.109 272.198 135.953 267.024C135.719 265.976 135.321 265.007 134.794 264.137Z" fill="url(#paint10_linear_451_617)"/>
<path d="M138.73 301.139C137.148 297.532 136.416 294.229 136.147 291.134C136.087 286.725 132.575 283.094 128.12 282.934C123.557 282.77 119.72 286.31 119.505 290.859C119.476 290.922 119.462 290.981 119.463 291.033C119.628 299.404 124.535 310.093 132.684 313.34C136.169 314.729 141.329 315.188 142.915 312.906C144.575 310.516 141.189 306.745 138.73 301.139Z" fill="url(#paint11_linear_451_617)"/>
<path d="M135.619 266.302C135.618 266.301 135.618 266.3 135.617 266.299C134.431 262.474 130.911 259.654 126.686 259.548C121.386 259.416 116.981 263.605 116.849 268.905C116.767 272.177 118.333 275.107 120.789 276.902C120.943 278.102 119.405 289.42 119.458 291.126C119.464 291.321 119.479 291.509 119.502 291.69C119.722 295.996 123.228 299.472 127.61 299.581C132.208 299.696 136.028 296.062 136.143 291.465C136.154 290.998 136.127 290.54 136.064 290.092C135.461 281.305 138.39 274.113 135.619 266.302Z" fill="url(#paint12_linear_451_617)"/>
<path d="M139.287 311.862C139.287 311.862 142.475 313.388 144.731 313.709C146.988 314.03 147.476 315.834 146.849 316.495C146.222 317.157 142.631 316.428 141.431 315.752C140.231 315.075 139.287 311.862 139.287 311.862Z" fill="url(#paint13_linear_451_617)"/>
<g style="mix-blend-mode:multiply" opacity="0.3">
<g style="mix-blend-mode:multiply">
<path d="M123.312 309.262C121.983 310.115 119.915 311.168 117.316 311.317C113.062 311.562 112.004 309.122 107.043 308.485C104.148 308.113 101.524 308.698 96.2755 309.866C90.3505 311.184 90.3505 311.951 89.0912 311.676C88.1374 311.468 87.0112 310.776 86.1287 306.511C87.6283 305.039 89.0538 304.392 90.2764 304.13C92.784 303.592 94.9195 304.556 96.7886 302.982C98.8713 301.229 97.6998 298.786 99.4194 296.856C101.983 293.98 106.601 297.147 110.524 295.606C119.084 292.242 117.608 269.523 123.347 268.127C123.347 268.127 123.106 299.88 123.312 309.262Z" fill="url(#paint14_linear_451_617)"/>
</g>
</g>
<path d="M115.457 242.874C115.457 242.874 113.841 245.817 111.798 247.611C109.951 249.233 104.881 248.329 103.757 248.341C102.633 248.353 104.566 250.955 107.035 252.494C109.504 254.033 117.213 257.092 119.035 256.765C120.857 256.438 118.408 255.325 116.889 253.733C115.369 252.14 116.081 247.986 117.218 246.501C118.355 245.016 115.457 242.874 115.457 242.874Z" fill="url(#paint15_linear_451_617)"/>
<path d="M49.2284 245.313L82.2018 273.956C83.1362 274.768 84.7806 274.405 85.8744 273.146C86.9681 271.887 87.0973 270.208 86.1628 269.396L53.1894 240.753C52.255 239.941 50.6107 240.304 49.5169 241.563C48.4231 242.822 48.294 244.501 49.2284 245.313Z" fill="#D8DEE7"/>
<path d="M44.0117 232.781L51.2027 239.027L56.0454 233.453L48.8543 227.206C48.7216 227.091 48.5205 227.105 48.4051 227.237L43.9802 232.332C43.8648 232.464 43.879 232.665 44.0117 232.781Z" fill="#D8DEE7"/>
<path d="M178.76 347.039L181.835 349.71C182.18 350.01 182.789 349.876 183.194 349.41C183.599 348.944 183.647 348.322 183.301 348.022L180.226 345.351L178.76 347.039Z" fill="#1BA6D5"/>
<path d="M181.269 347.737C180.526 348.591 179.441 348.941 178.67 348.574L162.755 340.998L172.007 330.348L181.734 345.046C182.205 345.758 182.011 346.882 181.269 347.737Z" fill="#D8DEE7"/>
<g style="mix-blend-mode:soft-light">
<path d="M181.07 346.266C180.867 346.5 180.246 346.315 179.584 345.822L167.183 334.202L169.717 331.285L180.423 344.856C181.003 345.443 181.274 346.032 181.07 346.266Z" fill="white"/>
</g>
<path d="M48.4693 241.376L163.065 341.267C165.248 343.163 174.499 332.512 172.317 330.616L57.721 230.726C56.4189 229.595 54.128 230.1 52.604 231.854L48.8712 236.152C47.3473 237.906 47.1674 240.245 48.4693 241.376Z" fill="url(#paint16_linear_451_617)"/>
<g style="mix-blend-mode:soft-light">
<path d="M78.8191 256.916L168.869 335.484L171.049 332.974L80.9995 254.406L78.8191 256.916Z" fill="white"/>
</g>
<g style="mix-blend-mode:multiply">
<path d="M72.6696 262.473L73.7199 263.385L83.0084 252.692L81.9581 251.78L72.6696 262.473Z" fill="url(#paint17_linear_451_617)"/>
</g>
<g style="mix-blend-mode:soft-light">
<path d="M48.5972 241.561L49.6474 242.474L58.9358 231.781L57.8855 230.869L48.5972 241.561Z" fill="white"/>
</g>
<g style="mix-blend-mode:multiply" opacity="0.2">
<path d="M57.7209 230.726L112.555 278.703C113.275 291.492 117.09 296.03 120.995 297.504C123.707 298.527 128.085 298.687 132.004 302.649C135.788 306.475 134.292 308.941 137.786 311.514C142.966 315.328 148.55 311.597 151.383 315.814C152.907 318.082 151.426 319.359 152.645 323.673C153.097 325.273 154.98 331.935 161.492 333.813C165.281 334.905 169.256 333.98 172.357 332.745C170.954 336.4 164.794 342.769 163.065 341.267L48.4693 241.376C47.1673 240.245 47.3473 237.906 48.8713 236.152L52.6042 231.854C54.128 230.1 56.4189 229.595 57.7209 230.726Z" fill="url(#paint18_linear_451_617)"/>
</g>
<path d="M82.1126 252.427C82.1128 252.426 82.1133 252.425 82.1134 252.424C82.737 248.468 85.814 245.17 89.9803 244.458C95.2063 243.564 100.167 247.076 101.061 252.302C101.613 255.528 100.485 258.652 98.3128 260.782C98.334 261.992 101.484 272.971 101.678 274.667C101.7 274.861 101.712 275.049 101.715 275.232C102.117 279.525 99.1474 283.469 94.8269 284.207C90.2939 284.983 85.9908 281.937 85.2155 277.404C85.1368 276.943 85.0981 276.486 85.0958 276.034C84.4282 267.252 80.4941 260.556 82.1126 252.427Z" fill="url(#paint19_linear_451_617)"/>
<path d="M105.985 284.57C103.926 281.212 102.75 278.04 102.062 275.01C101.401 270.651 97.4266 267.533 92.9913 267.982C88.4484 268.442 85.1306 272.472 85.5373 277.008C85.5176 277.074 85.5114 277.134 85.5196 277.186C86.825 285.456 93.1432 295.376 101.659 297.482C105.302 298.382 110.475 298.133 111.735 295.656C113.055 293.063 109.186 289.788 105.985 284.57Z" fill="url(#paint20_linear_451_617)"/>
<path d="M108.923 293.68C108.923 293.68 111.679 295.892 113.804 296.718C115.928 297.545 115.993 299.412 115.232 299.913C114.47 300.415 111.14 298.888 110.125 297.955C109.11 297.023 108.923 293.68 108.923 293.68Z" fill="url(#paint21_linear_451_617)"/>
<path d="M120.864 243.686C123.697 242.789 124.993 235.453 123.27 234.461C122.631 234.093 122.252 234.985 118.332 236.699C116.361 237.561 115.135 237.914 114.356 239.197C114.121 239.583 113.701 240.312 113.736 241.226C113.751 241.59 113.855 242.071 114.129 243.016C114.372 243.854 114.348 243.821 114.426 244.067C114.614 244.658 115.016 245.683 115.932 247.022C116.117 246.699 116.37 246.306 116.709 245.898C116.839 245.741 117.358 245.131 118.003 244.687C119.162 243.889 120.219 243.89 120.864 243.686Z" fill="url(#paint22_linear_451_617)"/>
<path d="M114.668 245.584C114.668 245.584 115.303 247.911 117.749 248.448C119.94 248.929 121.647 244.198 120.569 242.778C120.21 242.305 119.333 241.898 118.527 241.892C118.05 241.888 117.848 242.028 117.07 242.007C116.353 241.987 116.185 241.858 115.935 241.97C115.621 242.109 115.286 242.576 115.3 244.107C115.01 243.573 114.564 243.272 114.167 243.336C114.104 243.346 113.927 243.404 113.8 243.532C113.341 243.996 113.64 244.845 114.668 245.584Z" fill="url(#paint23_linear_451_617)"/>
<path d="M115.247 242.756C115.247 242.756 115.481 244.729 115.817 245.306C116.153 245.883 117.161 246.553 118.46 246.393C119.758 246.233 120.567 245.922 120.567 245.922C120.567 245.922 120.112 248.347 119.736 248.52C119.36 248.693 116.913 249.119 116.381 248.809C115.849 248.499 114.909 246.837 114.863 246.02C114.816 245.204 115.141 243.259 115.141 243.259L115.247 242.756Z" fill="url(#paint24_linear_451_617)"/>
</g>
</g>
<defs>
<filter id="filter0_f_451_617" x="257" y="-16" width="184" height="184" filterUnits="userSpaceOnUse" color-interpolation-filters="sRGB">
<feFlood flood-opacity="0" result="BackgroundImageFix"/>
<feBlend mode="normal" in="SourceGraphic" in2="BackgroundImageFix" result="shape"/>
<feGaussianBlur stdDeviation="1" result="effect1_foregroundBlur_451_617"/>
</filter>
<filter id="filter1_f_451_617" x="-156" y="459" width="288" height="288" filterUnits="userSpaceOnUse" color-interpolation-filters="sRGB">
<feFlood flood-opacity="0" result="BackgroundImageFix"/>
<feBlend mode="normal" in="SourceGraphic" in2="BackgroundImageFix" result="shape"/>
<feGaussianBlur stdDeviation="2" result="effect1_foregroundBlur_451_617"/>
</filter>
<linearGradient id="paint0_linear_451_617" x1="313.5" y1="118.5" x2="409" y2="11" gradientUnits="userSpaceOnUse">
<stop stop-color="#40F8FF" stop-opacity="0.6"/>
<stop offset="1" stop-color="#279EFF"/>
</linearGradient>
<linearGradient id="paint1_linear_451_617" x1="-28" y1="691" x2="128" y2="603" gradientUnits="userSpaceOnUse">
<stop stop-color="#279EFF" stop-opacity="0.3"/>
<stop offset="0.0001" stop-color="#279EFF" stop-opacity="0.4"/>
<stop offset="1" stop-color="#40F8FF" stop-opacity="0.4"/>
</linearGradient>
<linearGradient id="paint2_linear_451_617" x1="38.4" y1="262.426" x2="284.35" y2="262.426" gradientUnits="userSpaceOnUse">
<stop stop-color="#9B9B9B"/>
<stop offset="0.5" stop-color="#1CA7D6"/>
<stop offset="1"/>
</linearGradient>
<linearGradient id="paint3_linear_451_617" x1="183.86" y1="374.684" x2="181.658" y2="346.659" gradientUnits="userSpaceOnUse">
<stop stop-color="#311944"/>
<stop offset="0.5" stop-color="#69295D"/>
<stop offset="1" stop-color="#A03976"/>
</linearGradient>
<linearGradient id="paint4_linear_451_617" x1="169.781" y1="390.283" x2="170.181" y2="419.308" gradientUnits="userSpaceOnUse">
<stop stop-color="#FFC444"/>
<stop offset="0.5" stop-color="#F99A4D"/>
<stop offset="1" stop-color="#F36F56"/>
</linearGradient>
<linearGradient id="paint5_linear_451_617" x1="168.974" y1="343.229" x2="147.514" y2="343.229" gradientUnits="userSpaceOnUse">
<stop stop-color="#444B8C"/>
<stop offset="0.5" stop-color="#414682"/>
<stop offset="1" stop-color="#3E4177"/>
</linearGradient>
<linearGradient id="paint6_linear_451_617" x1="167.491" y1="343.229" x2="146.031" y2="343.229" gradientUnits="userSpaceOnUse">
<stop stop-color="#444B8C"/>
<stop offset="0.5" stop-color="#414682"/>
<stop offset="1" stop-color="#3E4177"/>
</linearGradient>
<linearGradient id="paint7_linear_451_617" x1="71.0152" y1="377.705" x2="63.8436" y2="350.525" gradientUnits="userSpaceOnUse">
<stop stop-color="#311944"/>
<stop offset="0.5" stop-color="#69295D"/>
<stop offset="1" stop-color="#A03976"/>
</linearGradient>
<linearGradient id="paint8_linear_451_617" x1="71.0005" y1="396.35" x2="76.5784" y2="424.837" gradientUnits="userSpaceOnUse">
<stop stop-color="#FFC444"/>
<stop offset="0.5" stop-color="#F99A4D"/>
<stop offset="1" stop-color="#F36F56"/>
</linearGradient>
<linearGradient id="paint9_linear_451_617" x1="135.055" y1="335.333" x2="92.5482" y2="343.049" gradientUnits="userSpaceOnUse">
<stop stop-color="#444B8C"/>
<stop offset="0.5" stop-color="#414682"/>
<stop offset="1" stop-color="#3E4177"/>
</linearGradient>
<linearGradient id="paint10_linear_451_617" x1="114.83" y1="303.739" x2="109.666" y2="275.909" gradientUnits="userSpaceOnUse">
<stop stop-color="#AA80F9"/>
<stop offset="0.5" stop-color="#8672E8"/>
<stop offset="1" stop-color="#6165D7"/>
</linearGradient>
<linearGradient id="paint11_linear_451_617" x1="159.367" y1="340.094" x2="113.301" y2="272.571" gradientUnits="userSpaceOnUse">
<stop stop-color="#AA80F9"/>
<stop offset="0.5" stop-color="#8672E8"/>
<stop offset="1" stop-color="#6165D7"/>
</linearGradient>
<linearGradient id="paint12_linear_451_617" x1="155.611" y1="325.839" x2="124.865" y2="275.227" gradientUnits="userSpaceOnUse">
<stop stop-color="#AA80F9"/>
<stop offset="0.5" stop-color="#8672E8"/>
<stop offset="1" stop-color="#6165D7"/>
</linearGradient>
<linearGradient id="paint13_linear_451_617" x1="145.017" y1="312.407" x2="141.305" y2="321.489" gradientUnits="userSpaceOnUse">
<stop stop-color="#311944"/>
<stop offset="0.5" stop-color="#5D295D"/>
<stop offset="1" stop-color="#893976"/>
</linearGradient>
<linearGradient id="paint14_linear_451_617" x1="155.052" y1="291.101" x2="150.46" y2="327.799" gradientUnits="userSpaceOnUse">
<stop stop-color="#AA80F9"/>
<stop offset="0.5" stop-color="#8672E8"/>
<stop offset="1" stop-color="#6165D7"/>
</linearGradient>
<linearGradient id="paint15_linear_451_617" x1="112.97" y1="251.057" x2="118.288" y2="246.557" gradientUnits="userSpaceOnUse">
<stop stop-color="#FFC444"/>
<stop offset="0.5" stop-color="#F99A4D"/>
<stop offset="1" stop-color="#F36F56"/>
</linearGradient>
<linearGradient id="paint16_linear_451_617" x1="163.448" y1="331.27" x2="64.4496" y2="246.817" gradientUnits="userSpaceOnUse">
<stop stop-color="#0042A5"/>
<stop offset="0.5" stop-color="#0042A5"/>
<stop offset="1" stop-color="#0042A5"/>
</linearGradient>
<linearGradient id="paint17_linear_451_617" x1="66.8527" y1="230.653" x2="65.8911" y2="229.042" gradientUnits="userSpaceOnUse">
<stop stop-color="#AA80F9"/>
<stop offset="0.5" stop-color="#8672E8"/>
<stop offset="1" stop-color="#6165D7"/>
</linearGradient>
<linearGradient id="paint18_linear_451_617" x1="150.746" y1="162.587" x2="186.612" y2="125.607" gradientUnits="userSpaceOnUse">
<stop stop-color="#311944"/>
<stop offset="0.5" stop-color="#69295D"/>
<stop offset="1" stop-color="#A03976"/>
</linearGradient>
<linearGradient id="paint19_linear_451_617" x1="70.8968" y1="314.221" x2="94.0388" y2="259.711" gradientUnits="userSpaceOnUse">
<stop stop-color="#AA80F9"/>
<stop offset="0.5" stop-color="#8672E8"/>
<stop offset="1" stop-color="#6165D7"/>
</linearGradient>
<linearGradient id="paint20_linear_451_617" x1="65.9678" y1="308.88" x2="105.932" y2="262.645" gradientUnits="userSpaceOnUse">
<stop stop-color="#AA80F9"/>
<stop offset="0.5" stop-color="#8672E8"/>
<stop offset="1" stop-color="#6165D7"/>
</linearGradient>
<linearGradient id="paint21_linear_451_617" x1="114.378" y1="295.515" x2="108.696" y2="303.514" gradientUnits="userSpaceOnUse">
<stop stop-color="#FFC444"/>
<stop offset="0.5" stop-color="#F99A4D"/>
<stop offset="1" stop-color="#F36F56"/>
</linearGradient>
<linearGradient id="paint22_linear_451_617" x1="212.365" y1="229.901" x2="214.243" y2="242.718" gradientUnits="userSpaceOnUse">
<stop stop-color="#444B8C"/>
<stop offset="0.5" stop-color="#35396D"/>
<stop offset="1" stop-color="#333367"/>
</linearGradient>
<linearGradient id="paint23_linear_451_617" x1="121.483" y1="242.392" x2="115.076" y2="252.862" gradientUnits="userSpaceOnUse">
<stop stop-color="#FFC444"/>
<stop offset="0.5" stop-color="#F99A4D"/>
<stop offset="1" stop-color="#F36F56"/>
</linearGradient>
<linearGradient id="paint24_linear_451_617" x1="204.01" y1="232.032" x2="205.888" y2="244.849" gradientUnits="userSpaceOnUse">
<stop stop-color="#444B8C"/>
<stop offset="0.5" stop-color="#35396D"/>
<stop offset="1" stop-color="#333367"/>
</linearGradient>
<clipPath id="clip0_451_617">
<rect width="300" height="300" fill="white" transform="translate(30 125)"/>
</clipPath>
</defs>
</svg>
