<svg width="300" height="300" viewBox="0 0 300 300" fill="none" xmlns="http://www.w3.org/2000/svg">
<g clip-path="url(#clip0_396_4991)">
<mask id="mask0_396_4991" style="mask-type:luminance" maskUnits="userSpaceOnUse" x="0" y="0" width="300" height="300">
<path d="M300 0H0V300H300V0Z" fill="white"/>
</mask>
<g mask="url(#mask0_396_4991)">
<path d="M33.906 141.532C37.2486 154.616 49.5023 199.893 91.308 231.798C157.255 282.127 260.635 271.628 274.316 239.146C280.663 224.077 263.282 214.782 258.758 172.66C254.516 133.157 268.127 125.729 262.769 101.977C252.239 55.3009 186.335 25.3012 133.998 21.1459C117.617 19.8453 64.1909 15.6035 40.5695 47.3899C18.3235 77.3255 27.8373 117.777 33.906 141.532Z" fill="#F4F6FA"/>
<path d="M186.767 68.38L44.1271 81.4198C52.7449 86.7435 66.0816 97.4142 74.1094 119.033C89.9147 161.595 72.3544 201.239 91.35 229.867C96.4042 237.484 107.302 251.279 124.138 254.661L260.362 236.088C215.755 223.155 203.657 198.704 201.33 177.857C198.995 156.936 205.638 131.912 197.68 98.2398C194.426 84.4697 189.984 74.5623 186.767 68.38Z" fill="url(#paint0_linear_396_4991)"/>
<path d="M61.7601 45.1663C103.646 42.5362 145.533 39.9063 187.419 37.2762C193.058 42.0543 200.979 50.549 206.139 65.2425C218.017 99.0593 204.182 132.505 208.179 165.375C210.729 186.336 221.245 212.597 258.915 230.15C213.936 236.036 168.958 241.922 123.98 247.807C114.687 244.247 102.3 236.848 95.1324 219.631C87.5336 201.377 92.8538 189.028 90.236 131.65C88.3935 91.2685 84.7698 75.3417 77.2215 62.5737C71.9952 53.7332 66.1046 48.3783 61.7601 45.1663Z" fill="white"/>
<path d="M199.067 162.284C199.094 162.615 199.122 162.946 199.152 163.277C199.18 163.589 198.955 163.866 198.644 163.9L100.394 174.691C100.051 174.729 99.7533 174.461 99.7564 174.117C99.7594 173.784 99.7623 173.448 99.7651 173.109C99.7674 172.817 99.9873 172.572 100.277 172.54L198.433 161.759C198.755 161.724 199.041 161.961 199.067 162.284Z" fill="#D8DEE7"/>
<path d="M198.674 151.709C198.673 152.043 198.673 152.378 198.675 152.712C198.676 153.007 198.455 153.254 198.162 153.286L100.424 163.695C100.086 163.731 99.7903 163.469 99.7889 163.128C99.7876 162.795 99.7859 162.459 99.7841 162.121C99.7826 161.826 100.004 161.576 100.298 161.545L198.04 151.135C198.38 151.099 198.676 151.366 198.674 151.709Z" fill="#D8DEE7"/>
<path d="M200.471 172.751C200.533 173.079 200.597 173.406 200.662 173.731C200.729 174.062 200.5 174.377 200.165 174.415L100.261 185.712C99.9177 185.751 99.6179 185.48 99.6221 185.134C99.6262 184.802 99.6304 184.466 99.6347 184.125C99.6384 183.836 99.8571 183.593 100.145 183.56L199.843 172.287C200.142 172.253 200.415 172.456 200.471 172.751Z" fill="#D8DEE7"/>
<path d="M142.786 233.237L212.821 224.112C213.016 224.087 213.212 224.163 213.339 224.32C213.582 224.621 213.883 224.857 214.223 225.041C214.744 225.325 214.578 226.056 214.037 226.125L144.846 235.142C144.159 234.508 143.472 233.873 142.786 233.237Z" fill="#D8DEE7"/>
<path d="M199.043 141.059C199.022 141.396 199.001 141.734 198.982 142.072C198.966 142.353 198.749 142.581 198.469 142.61L100.298 152.729C99.9635 152.763 99.6713 152.506 99.665 152.17C99.6587 151.837 99.652 151.502 99.6453 151.165C99.6393 150.866 99.8632 150.611 100.161 150.58L198.412 140.453C198.765 140.417 199.065 140.705 199.043 141.059Z" fill="#D8DEE7"/>
<path d="M212.614 203.216C212.818 203.526 213.024 203.834 213.233 204.142C213.475 204.498 213.257 204.983 212.83 205.035L104.548 218.279C104.3 218.31 104.06 218.177 103.956 217.95C103.809 217.632 103.665 217.31 103.524 216.985C103.37 216.631 103.597 216.229 103.98 216.182L212.067 202.962C212.283 202.935 212.495 203.034 212.614 203.216Z" fill="#D8DEE7"/>
<path d="M207.041 193.251C207.19 193.568 207.34 193.884 207.493 194.199C207.666 194.555 207.439 194.974 207.046 195.021L101.179 207.652C100.878 207.688 100.598 207.484 100.545 207.185C100.486 206.852 100.431 206.516 100.378 206.178C100.329 205.857 100.557 205.56 100.879 205.521L206.455 192.925C206.7 192.896 206.936 193.027 207.041 193.251Z" fill="#D8DEE7"/>
<path d="M203.069 183.084C203.171 183.406 203.275 183.728 203.381 184.049C203.495 184.395 203.266 184.758 202.904 184.8L100.255 196.731C99.9186 196.77 99.621 196.513 99.6137 196.175C99.6065 195.842 99.6004 195.505 99.5952 195.164C99.5907 194.869 99.8107 194.617 100.104 194.583L202.456 182.686C202.73 182.655 202.986 182.822 203.069 183.084Z" fill="#D8DEE7"/>
<path d="M199.899 130.373C199.867 130.711 199.836 131.05 199.804 131.389C199.779 131.663 199.564 131.881 199.29 131.908L100.011 141.792C99.6799 141.825 99.3906 141.573 99.3796 141.241C99.3685 140.908 99.3572 140.574 99.3456 140.238C99.3352 139.936 99.5613 139.675 99.8627 139.645L199.271 129.748C199.63 129.712 199.933 130.013 199.899 130.373Z" fill="#D8DEE7"/>
<path d="M196.936 66.7861C197.191 66.7666 197.43 66.918 197.519 67.1582C197.64 67.485 197.76 67.8134 197.876 68.1449C197.877 68.1472 197.878 68.1495 197.879 68.1519C198.003 68.5062 197.753 68.8813 197.378 68.9098L93.0109 76.8598C92.7376 76.8806 92.4882 76.7032 92.4148 76.439C92.3234 76.1106 92.2309 75.7848 92.1374 75.4617C92.0359 75.1112 92.2806 74.7578 92.6445 74.7302L196.936 66.7861Z" fill="#D8DEE7"/>
<path d="M200.466 77.4681C200.535 77.8003 200.602 78.1325 200.667 78.4649C200.732 78.8012 200.488 79.1195 200.147 79.1469L95.4348 87.5619C95.1407 87.5856 94.8771 87.3803 94.8242 87.09C94.7639 86.7588 94.7028 86.4302 94.6411 86.104C94.5776 85.7683 94.8184 85.4536 95.159 85.4263L199.855 77.0126C200.144 76.9893 200.407 77.1846 200.466 77.4681Z" fill="#D8DEE7"/>
<path d="M192.484 58.2556L89.2352 66.1046C88.9919 66.1232 88.7643 65.9841 88.6669 65.7605C87.4935 63.0678 86.1965 60.5451 84.7607 58.1164C84.0372 56.8926 83.2842 55.7012 82.5044 54.5403C82.2568 54.1717 82.4974 53.6737 82.9404 53.6438L184.543 46.7968C184.711 46.7855 184.876 46.8474 184.994 46.967C188.022 50.0352 190.675 53.5182 192.939 57.3955C193.152 57.7604 192.905 58.2236 192.484 58.2556Z" fill="#D8DEE7"/>
<path d="M200.944 119.683C200.911 120.021 200.878 120.36 200.845 120.699C200.818 120.973 200.601 121.19 200.327 121.216L99.5711 130.883C99.2443 130.914 98.9577 130.664 98.9424 130.336C98.9267 130.001 98.9108 129.667 98.8949 129.335C98.8802 129.028 99.1086 128.766 99.4138 128.736L200.316 119.056C200.676 119.022 200.979 119.323 200.944 119.683Z" fill="#D8DEE7"/>
<path d="M201.859 109.022C201.836 109.36 201.812 109.697 201.787 110.035C201.766 110.316 201.545 110.541 201.265 110.567L98.9795 119.999C98.6569 120.029 98.3737 119.785 98.3535 119.461C98.3325 119.127 98.3114 118.793 98.29 118.462C98.2701 118.152 98.5006 117.883 98.8105 117.854L201.231 108.41C201.585 108.377 201.884 108.668 201.859 109.022Z" fill="#D8DEE7"/>
<path d="M202.312 98.416C202.309 98.753 202.304 99.0903 202.298 99.4276C202.293 99.7215 202.066 99.9642 201.773 99.9901L98.1773 109.146C97.8607 109.174 97.5818 108.938 97.5545 108.621C97.5256 108.287 97.4965 107.955 97.467 107.625C97.4388 107.309 97.6721 107.031 97.9884 107.003L201.686 97.8383C202.024 97.8084 202.316 98.0765 202.312 98.416Z" fill="#D8DEE7"/>
<path d="M201.96 87.8916C201.987 88.2265 202.013 88.5614 202.037 88.8967C202.06 89.2103 201.824 89.4839 201.511 89.5104L97.0558 98.3298C96.7482 98.3558 96.4755 98.132 96.4376 97.8256C96.3964 97.4927 96.3548 97.1622 96.3128 96.8338C96.2712 96.5094 96.508 96.2175 96.8339 96.1899L201.337 87.3666C201.654 87.3398 201.934 87.575 201.96 87.8916Z" fill="#D8DEE7"/>
<path d="M74.9998 275.931C97.0911 275.931 115 273.26 115 269.966C115 266.672 97.0911 264.001 74.9998 264.001C52.9085 264.001 34.9999 266.672 34.9999 269.966C34.9999 273.26 52.9085 275.931 74.9998 275.931Z" fill="#E6E6E6"/>
<path d="M85.4388 263.692C85.4388 263.692 94.3025 267.721 94.4472 268.364C94.5919 269.007 88.7469 268.148 86.3608 268.241C83.9747 268.334 82.0119 267.628 82.2278 266.618C82.4439 265.607 83.2791 263.065 83.2791 263.065L85.4388 263.692Z" fill="url(#paint1_linear_396_4991)"/>
<path d="M85.7633 260.423L85.2241 264.413C85.2241 264.413 83.8208 264.913 82.8782 264.322L82.4761 259.945L85.7633 260.423Z" fill="url(#paint2_linear_396_4991)"/>
<path d="M90.6388 180.249C91.1064 192.153 91.1254 205.087 90.4405 218.903C89.6693 234.462 88.1195 248.842 86.1664 261.878C85.4404 261.901 84.6773 261.905 83.8804 261.883C83.3422 261.868 82.8208 261.842 82.3168 261.807C81.3033 259.104 80.1053 255.549 79.0325 251.303C77.9046 246.839 77.2242 242.834 76.7395 239.005C75.0326 225.522 77.0329 224.346 75.6477 214.353C74.421 205.503 72.6763 205.158 70.6282 192.593C68.4061 178.96 70.0604 176.915 70.8648 176.176C74.2894 173.031 82.3337 175.172 90.6388 180.249Z" fill="url(#paint3_linear_396_4991)"/>
<g style="mix-blend-mode:multiply" opacity="0.3">
<path d="M70.8648 176.176C74.1311 173.176 81.601 174.992 89.4906 179.571C80.4143 189.377 79.4249 195.739 80.5129 199.866C81.7426 204.531 85.4813 205.875 85.4672 210.976C85.4496 217.244 79.7921 218.905 79.9124 225.538C79.9919 229.924 82.478 229.879 83.0651 235.297C83.7596 241.707 80.5118 243.915 81.5638 248.658C82.0164 250.699 83.3081 253.365 86.987 256.111C86.7217 258.059 86.4498 259.987 86.1663 261.878C85.4406 261.901 84.6774 261.905 83.8805 261.883C83.3423 261.868 82.8207 261.842 82.317 261.807C81.3033 259.104 80.1053 255.549 79.0325 251.304C77.9047 246.839 77.2242 242.834 76.7395 239.005C75.0326 225.522 77.0329 224.345 75.6476 214.353C74.4209 205.503 72.6763 205.158 70.6283 192.593C68.4062 178.96 70.0604 176.915 70.8648 176.176Z" fill="url(#paint4_linear_396_4991)"/>
</g>
<path d="M58.5689 263.841L57.8501 265.653C57.6491 266.16 57.6641 266.724 57.8943 267.218C58.4948 268.508 59.6824 271.019 60.1162 271.651C60.7071 272.512 66.4519 272.044 66.4519 272.044C66.4519 272.044 66.8265 271.244 65.4994 270.602C64.1725 269.959 63.395 269.961 62.7522 268.774C62.1096 267.587 61.1855 264.066 61.1855 264.066L58.5689 263.841Z" fill="url(#paint5_linear_396_4991)"/>
<path d="M62.04 258.936C61.7232 259.299 60.9092 265.129 60.9092 265.129C60.9092 265.129 60.4587 265.986 59.143 265.081C57.8276 264.176 58.5485 264.676 58.5485 264.676L57.7752 259.227L62.04 258.936Z" fill="url(#paint6_linear_396_4991)"/>
<path d="M84.5329 177.345C78.8858 189.992 73.1338 205.5 68.759 223.607C65.4529 237.291 63.5463 249.921 62.4855 261.061C62.1155 261.322 61.2305 261.868 59.9839 261.928C58.2835 262.01 57.0959 261.13 56.7821 260.882C54.1882 253.504 53.1539 247.045 52.7232 242.326C52.4476 239.305 52.016 234.269 52.8016 227.812C53.6815 220.579 55.071 219.93 56.5256 212.183C58.0352 204.142 56.9984 202.392 58.0432 192.483C58.4723 188.412 59.3212 182.316 61.1958 174.868C68.9748 175.694 76.7539 176.52 84.5329 177.345Z" fill="url(#paint7_linear_396_4991)"/>
<path d="M104.794 139.137C104.794 139.137 104.794 139.136 104.794 139.136C104.792 139.134 104.791 139.132 104.79 139.13C104.537 138.715 104.255 138.323 103.947 137.956C103.264 137.072 102.477 136.201 101.564 135.344C98.823 132.769 95.8304 131.142 91.5316 128.804C85.2205 125.372 80.1406 123.784 75.6013 122.392C66.5172 119.607 61.9155 118.253 59.003 120.184C55.4469 122.541 55.1979 127.965 55.0868 131.347C53.3982 182.807 56.7606 186.167 59.0911 186.676C60.3505 186.951 60.3505 186.184 66.2755 184.866C71.5242 183.698 74.1483 183.114 77.0429 183.485C82.0039 184.122 83.062 186.562 87.316 186.318C89.915 186.168 91.9835 185.115 93.3123 184.262C93.1107 175.1 92.0417 154.01 92.8508 152.963C94.6287 153.715 96.6497 153.94 98.6775 153.487C103.852 152.33 107.109 147.198 105.953 142.024C105.719 140.976 105.321 140.007 104.794 139.137Z" fill="url(#paint8_linear_396_4991)"/>
<path d="M108.73 176.139C107.148 172.532 106.416 169.229 106.147 166.134C106.087 161.725 102.575 158.094 98.1198 157.934C93.5566 157.77 89.7202 161.31 89.5045 165.859C89.476 165.922 89.4617 165.981 89.4627 166.033C89.6281 174.404 94.5346 185.093 102.684 188.34C106.169 189.729 111.329 190.188 112.915 187.906C114.575 185.516 111.189 181.745 108.73 176.139Z" fill="url(#paint9_linear_396_4991)"/>
<path d="M105.619 141.302C105.618 141.301 105.618 141.3 105.617 141.299C104.431 137.474 100.911 134.654 96.6858 134.548C91.3855 134.416 86.9815 138.605 86.8491 143.905C86.7674 147.177 88.3328 150.107 90.7894 151.902C90.9425 153.102 89.4055 164.42 89.4577 166.126C89.4637 166.321 89.4787 166.509 89.5022 166.69C89.722 170.996 93.2285 174.472 97.6104 174.581C102.208 174.696 106.028 171.062 106.143 166.465C106.154 165.998 106.127 165.54 106.064 165.092C105.461 156.305 108.39 149.113 105.619 141.302Z" fill="url(#paint10_linear_396_4991)"/>
<path d="M109.287 186.862C109.287 186.862 112.475 188.388 114.731 188.709C116.988 189.03 117.476 190.834 116.849 191.495C116.222 192.157 112.631 191.428 111.431 190.752C110.231 190.075 109.287 186.862 109.287 186.862Z" fill="url(#paint11_linear_396_4991)"/>
<g style="mix-blend-mode:multiply" opacity="0.3">
<g style="mix-blend-mode:multiply">
<path d="M93.3122 184.262C91.9835 185.115 89.9151 186.168 87.316 186.317C83.062 186.562 82.004 184.122 77.0429 183.485C74.1484 183.113 71.5242 183.698 66.2755 184.866C60.3505 186.184 60.3505 186.951 59.0912 186.676C58.1374 186.468 57.0112 185.776 56.1287 181.511C57.6283 180.039 59.0538 179.392 60.2764 179.13C62.784 178.592 64.9195 179.556 66.7886 177.982C68.8713 176.229 67.6998 173.786 69.4194 171.856C71.9826 168.98 76.601 172.147 80.5235 170.606C89.0841 167.242 87.6081 144.523 93.3474 143.127C93.3474 143.127 93.1059 174.88 93.3122 184.262Z" fill="url(#paint12_linear_396_4991)"/>
</g>
</g>
<path d="M85.4574 117.874C85.4574 117.874 83.841 120.817 81.7979 122.611C79.9515 124.233 74.8805 123.329 73.7566 123.341C72.6327 123.353 74.5658 125.955 77.0351 127.494C79.5043 129.033 87.2133 132.092 89.035 131.765C90.8566 131.438 88.4082 130.325 86.8888 128.733C85.3694 127.14 86.081 122.986 87.2178 121.501C88.3546 120.016 85.4574 117.874 85.4574 117.874Z" fill="url(#paint13_linear_396_4991)"/>
<path d="M19.2284 120.313L52.2018 148.956C53.1362 149.768 54.7806 149.405 55.8744 148.146C56.9681 146.887 57.0973 145.208 56.1628 144.396L23.1894 115.753C22.255 114.941 20.6107 115.304 19.5169 116.563C18.4231 117.822 18.294 119.501 19.2284 120.313Z" fill="#D8DEE7"/>
<path d="M14.0117 107.781L21.2027 114.027L26.0454 108.453L18.8543 102.206C18.7216 102.091 18.5205 102.105 18.4051 102.237L13.9802 107.332C13.8648 107.464 13.879 107.665 14.0117 107.781Z" fill="#D8DEE7"/>
<path d="M148.76 222.039L151.835 224.71C152.18 225.01 152.789 224.876 153.194 224.41C153.599 223.944 153.647 223.322 153.301 223.022L150.226 220.351L148.76 222.039Z" fill="#1BA6D5"/>
<path d="M151.269 222.737C150.526 223.591 149.441 223.941 148.67 223.574L132.755 215.998L142.007 205.348L151.734 220.046C152.205 220.758 152.011 221.882 151.269 222.737Z" fill="#D8DEE7"/>
<g style="mix-blend-mode:soft-light">
<path d="M151.07 221.266C150.867 221.5 150.246 221.315 149.584 220.822L137.183 209.202L139.717 206.285L150.423 219.856C151.003 220.443 151.274 221.032 151.07 221.266Z" fill="white"/>
</g>
<path d="M18.4693 116.376L133.065 216.267C135.248 218.163 144.499 207.512 142.317 205.616L27.721 105.726C26.4189 104.595 24.128 105.1 22.604 106.854L18.8712 111.152C17.3473 112.906 17.1674 115.245 18.4693 116.376Z" fill="url(#paint14_linear_396_4991)"/>
<g style="mix-blend-mode:soft-light">
<path d="M48.8191 131.916L138.869 210.484L141.049 207.974L50.9995 129.406L48.8191 131.916Z" fill="white"/>
</g>
<g style="mix-blend-mode:multiply">
<path d="M42.6696 137.473L43.7199 138.385L53.0084 127.692L51.9581 126.78L42.6696 137.473Z" fill="url(#paint15_linear_396_4991)"/>
</g>
<g style="mix-blend-mode:soft-light">
<path d="M18.5972 116.561L19.6474 117.474L28.9358 106.781L27.8855 105.869L18.5972 116.561Z" fill="white"/>
</g>
<g style="mix-blend-mode:multiply" opacity="0.2">
<path d="M27.7209 105.726L82.5548 153.703C83.2746 166.492 87.0905 171.03 90.9953 172.504C93.7071 173.527 98.0853 173.687 102.004 177.649C105.788 181.475 104.292 183.941 107.786 186.514C112.966 190.328 118.55 186.597 121.383 190.814C122.907 193.082 121.426 194.359 122.645 198.673C123.097 200.273 124.98 206.935 131.492 208.813C135.281 209.905 139.256 208.98 142.357 207.745C140.954 211.4 134.794 217.769 133.065 216.267L18.4693 116.376C17.1673 115.245 17.3473 112.906 18.8713 111.152L22.6042 106.854C24.128 105.1 26.4189 104.595 27.7209 105.726Z" fill="url(#paint16_linear_396_4991)"/>
</g>
<path d="M52.1126 127.427C52.1128 127.426 52.1133 127.425 52.1134 127.424C52.737 123.468 55.814 120.17 59.9803 119.458C65.2063 118.564 70.1675 122.076 71.0613 127.302C71.613 130.528 70.4855 133.652 68.3128 135.782C68.334 136.992 71.484 147.971 71.6778 149.667C71.7 149.861 71.7122 150.049 71.7149 150.232C72.1172 154.525 69.1474 158.469 64.8269 159.207C60.2939 159.983 55.9908 156.937 55.2155 152.404C55.1368 151.943 55.0981 151.486 55.0958 151.034C54.4282 142.252 50.4941 135.556 52.1126 127.427Z" fill="url(#paint17_linear_396_4991)"/>
<path d="M75.9847 159.57C73.9256 156.212 72.7499 153.04 72.0621 150.01C71.4007 145.651 67.4266 142.533 62.9913 142.982C58.4484 143.442 55.1306 147.472 55.5373 152.008C55.5176 152.074 55.5114 152.134 55.5196 152.186C56.825 160.456 63.1432 170.376 71.6592 172.482C75.3016 173.382 80.4754 173.133 81.7353 170.656C83.0546 168.063 79.1859 164.788 75.9847 159.57Z" fill="url(#paint18_linear_396_4991)"/>
<path d="M78.9232 168.68C78.9232 168.68 81.6794 170.892 83.8035 171.718C85.9276 172.545 85.9929 174.412 85.2316 174.913C84.4704 175.415 81.1399 173.888 80.1251 172.955C79.1104 172.023 78.9232 168.68 78.9232 168.68Z" fill="url(#paint19_linear_396_4991)"/>
<path d="M90.8639 118.686C93.6973 117.789 94.9927 110.453 93.2697 109.461C92.6312 109.093 92.2521 109.985 88.3318 111.699C86.3615 112.561 85.1355 112.914 84.3557 114.197C84.1214 114.583 83.7009 115.312 83.7364 116.226C83.7506 116.59 83.8546 117.071 84.1286 118.016C84.3719 118.854 84.3479 118.821 84.4261 119.067C84.6139 119.658 85.0156 120.683 85.9324 122.022C86.1173 121.699 86.3703 121.306 86.7091 120.898C86.8394 120.741 87.3576 120.131 88.0026 119.687C89.1617 118.889 90.2186 118.89 90.8639 118.686Z" fill="url(#paint20_linear_396_4991)"/>
<path d="M84.668 120.584C84.668 120.584 85.3028 122.911 87.7493 123.448C89.9398 123.929 91.6473 119.198 90.5694 117.778C90.2099 117.305 89.3334 116.898 88.5268 116.892C88.0505 116.888 87.8485 117.028 87.0702 117.007C86.3526 116.987 86.1851 116.858 85.9346 116.97C85.6212 117.109 85.2863 117.576 85.3001 119.107C85.01 118.573 84.5635 118.272 84.1671 118.336C84.104 118.346 83.9272 118.404 83.8003 118.532C83.3406 118.996 83.6403 119.845 84.668 120.584Z" fill="url(#paint21_linear_396_4991)"/>
<path d="M85.2474 117.756C85.2474 117.756 85.4808 119.729 85.8171 120.306C86.1534 120.883 87.1609 121.553 88.4596 121.393C89.7582 121.233 90.567 120.922 90.567 120.922C90.567 120.922 90.112 123.347 89.7359 123.52C89.3597 123.693 86.9132 124.119 86.3811 123.809C85.8491 123.499 84.9091 121.837 84.8627 121.02C84.8163 120.204 85.141 118.259 85.141 118.259L85.2474 117.756Z" fill="url(#paint22_linear_396_4991)"/>
</g>
</g>
<defs>
<linearGradient id="paint0_linear_396_4991" x1="8.39996" y1="137.426" x2="254.35" y2="137.426" gradientUnits="userSpaceOnUse">
<stop stop-color="#9B9B9B"/>
<stop offset="0.5" stop-color="#1CA7D6"/>
<stop offset="1"/>
</linearGradient>
<linearGradient id="paint1_linear_396_4991" x1="153.86" y1="249.684" x2="151.658" y2="221.659" gradientUnits="userSpaceOnUse">
<stop stop-color="#311944"/>
<stop offset="0.5" stop-color="#69295D"/>
<stop offset="1" stop-color="#A03976"/>
</linearGradient>
<linearGradient id="paint2_linear_396_4991" x1="139.781" y1="265.283" x2="140.181" y2="294.308" gradientUnits="userSpaceOnUse">
<stop stop-color="#FFC444"/>
<stop offset="0.5" stop-color="#F99A4D"/>
<stop offset="1" stop-color="#F36F56"/>
</linearGradient>
<linearGradient id="paint3_linear_396_4991" x1="138.974" y1="218.229" x2="117.514" y2="218.229" gradientUnits="userSpaceOnUse">
<stop stop-color="#444B8C"/>
<stop offset="0.5" stop-color="#414682"/>
<stop offset="1" stop-color="#3E4177"/>
</linearGradient>
<linearGradient id="paint4_linear_396_4991" x1="137.491" y1="218.229" x2="116.031" y2="218.229" gradientUnits="userSpaceOnUse">
<stop stop-color="#444B8C"/>
<stop offset="0.5" stop-color="#414682"/>
<stop offset="1" stop-color="#3E4177"/>
</linearGradient>
<linearGradient id="paint5_linear_396_4991" x1="41.0152" y1="252.705" x2="33.8436" y2="225.525" gradientUnits="userSpaceOnUse">
<stop stop-color="#311944"/>
<stop offset="0.5" stop-color="#69295D"/>
<stop offset="1" stop-color="#A03976"/>
</linearGradient>
<linearGradient id="paint6_linear_396_4991" x1="41.0005" y1="271.35" x2="46.5784" y2="299.837" gradientUnits="userSpaceOnUse">
<stop stop-color="#FFC444"/>
<stop offset="0.5" stop-color="#F99A4D"/>
<stop offset="1" stop-color="#F36F56"/>
</linearGradient>
<linearGradient id="paint7_linear_396_4991" x1="105.055" y1="210.333" x2="62.5482" y2="218.049" gradientUnits="userSpaceOnUse">
<stop stop-color="#444B8C"/>
<stop offset="0.5" stop-color="#414682"/>
<stop offset="1" stop-color="#3E4177"/>
</linearGradient>
<linearGradient id="paint8_linear_396_4991" x1="84.8303" y1="178.739" x2="79.6658" y2="150.909" gradientUnits="userSpaceOnUse">
<stop stop-color="#AA80F9"/>
<stop offset="0.5" stop-color="#8672E8"/>
<stop offset="1" stop-color="#6165D7"/>
</linearGradient>
<linearGradient id="paint9_linear_396_4991" x1="129.367" y1="215.094" x2="83.3005" y2="147.571" gradientUnits="userSpaceOnUse">
<stop stop-color="#AA80F9"/>
<stop offset="0.5" stop-color="#8672E8"/>
<stop offset="1" stop-color="#6165D7"/>
</linearGradient>
<linearGradient id="paint10_linear_396_4991" x1="125.611" y1="200.839" x2="94.8654" y2="150.227" gradientUnits="userSpaceOnUse">
<stop stop-color="#AA80F9"/>
<stop offset="0.5" stop-color="#8672E8"/>
<stop offset="1" stop-color="#6165D7"/>
</linearGradient>
<linearGradient id="paint11_linear_396_4991" x1="115.017" y1="187.407" x2="111.305" y2="196.489" gradientUnits="userSpaceOnUse">
<stop stop-color="#311944"/>
<stop offset="0.5" stop-color="#5D295D"/>
<stop offset="1" stop-color="#893976"/>
</linearGradient>
<linearGradient id="paint12_linear_396_4991" x1="125.052" y1="166.101" x2="120.46" y2="202.799" gradientUnits="userSpaceOnUse">
<stop stop-color="#AA80F9"/>
<stop offset="0.5" stop-color="#8672E8"/>
<stop offset="1" stop-color="#6165D7"/>
</linearGradient>
<linearGradient id="paint13_linear_396_4991" x1="82.9696" y1="126.057" x2="88.2878" y2="121.557" gradientUnits="userSpaceOnUse">
<stop stop-color="#FFC444"/>
<stop offset="0.5" stop-color="#F99A4D"/>
<stop offset="1" stop-color="#F36F56"/>
</linearGradient>
<linearGradient id="paint14_linear_396_4991" x1="133.448" y1="206.27" x2="34.4496" y2="121.817" gradientUnits="userSpaceOnUse">
<stop stop-color="#0042A5"/>
<stop offset="0.5" stop-color="#0042A5"/>
<stop offset="1" stop-color="#0042A5"/>
</linearGradient>
<linearGradient id="paint15_linear_396_4991" x1="36.8527" y1="105.653" x2="35.8911" y2="104.042" gradientUnits="userSpaceOnUse">
<stop stop-color="#AA80F9"/>
<stop offset="0.5" stop-color="#8672E8"/>
<stop offset="1" stop-color="#6165D7"/>
</linearGradient>
<linearGradient id="paint16_linear_396_4991" x1="120.746" y1="37.587" x2="156.612" y2="0.607337" gradientUnits="userSpaceOnUse">
<stop stop-color="#311944"/>
<stop offset="0.5" stop-color="#69295D"/>
<stop offset="1" stop-color="#A03976"/>
</linearGradient>
<linearGradient id="paint17_linear_396_4991" x1="40.8968" y1="189.221" x2="64.0388" y2="134.711" gradientUnits="userSpaceOnUse">
<stop stop-color="#AA80F9"/>
<stop offset="0.5" stop-color="#8672E8"/>
<stop offset="1" stop-color="#6165D7"/>
</linearGradient>
<linearGradient id="paint18_linear_396_4991" x1="35.9678" y1="183.88" x2="75.932" y2="137.645" gradientUnits="userSpaceOnUse">
<stop stop-color="#AA80F9"/>
<stop offset="0.5" stop-color="#8672E8"/>
<stop offset="1" stop-color="#6165D7"/>
</linearGradient>
<linearGradient id="paint19_linear_396_4991" x1="84.3782" y1="170.515" x2="78.6962" y2="178.514" gradientUnits="userSpaceOnUse">
<stop stop-color="#FFC444"/>
<stop offset="0.5" stop-color="#F99A4D"/>
<stop offset="1" stop-color="#F36F56"/>
</linearGradient>
<linearGradient id="paint20_linear_396_4991" x1="182.365" y1="104.901" x2="184.243" y2="117.718" gradientUnits="userSpaceOnUse">
<stop stop-color="#444B8C"/>
<stop offset="0.5" stop-color="#35396D"/>
<stop offset="1" stop-color="#333367"/>
</linearGradient>
<linearGradient id="paint21_linear_396_4991" x1="91.483" y1="117.392" x2="85.0764" y2="127.862" gradientUnits="userSpaceOnUse">
<stop stop-color="#FFC444"/>
<stop offset="0.5" stop-color="#F99A4D"/>
<stop offset="1" stop-color="#F36F56"/>
</linearGradient>
<linearGradient id="paint22_linear_396_4991" x1="174.01" y1="107.032" x2="175.888" y2="119.849" gradientUnits="userSpaceOnUse">
<stop stop-color="#444B8C"/>
<stop offset="0.5" stop-color="#35396D"/>
<stop offset="1" stop-color="#333367"/>
</linearGradient>
<clipPath id="clip0_396_4991">
<rect width="300" height="300" fill="white"/>
</clipPath>
</defs>
</svg>
