<svg width="24" height="24" viewBox="0 0 24 24" fill="none" xmlns="http://www.w3.org/2000/svg">
<g clip-path="url(#clip0_902_1564)">
<path d="M16.9267 16.9666C16.7789 16.8708 16.5992 16.8373 16.4268 16.8735C16.2544 16.9098 16.1034 17.0127 16.0067 17.16C15.0667 18.6 13.34 20.3666 11.8 20.96C10.26 21.5533 9.05334 21.34 8.57334 20.96C8.36667 20.78 7.82667 20.2933 8.28667 18.6333C8.59334 17.5266 10.5 12.3133 10.9533 11.0466L9.50001 11.2333C9.04001 12.4733 7.30667 17.1266 6.99334 18.2866C6.54001 19.9466 6.76667 21.1533 7.72001 21.9933C8.38612 22.4606 9.18688 22.6971 10 22.6666C10.789 22.6553 11.569 22.497 12.3 22.2C14.16 21.4733 16.1133 19.4533 17.14 17.8866C17.1866 17.8123 17.218 17.7294 17.2324 17.6429C17.2469 17.5564 17.2442 17.4678 17.2243 17.3823C17.2045 17.2969 17.168 17.2162 17.1169 17.1448C17.0659 17.0735 17.0012 17.0129 16.9267 16.9666Z" fill="black"/>
<path d="M12.8667 7.33338C13.46 7.33338 14.04 7.15743 14.5334 6.82778C15.0267 6.49814 15.4112 6.0296 15.6383 5.48143C15.8654 4.93325 15.9248 4.33005 15.809 3.7481C15.6933 3.16616 15.4075 2.63161 14.988 2.21205C14.5684 1.7925 14.0339 1.50678 13.4519 1.39102C12.87 1.27526 12.2668 1.33467 11.7186 1.56174C11.1704 1.7888 10.7019 2.17332 10.3723 2.66666C10.0426 3.16001 9.86667 3.74003 9.86667 4.33338C9.86667 5.12902 10.1827 5.89209 10.7453 6.4547C11.308 7.0173 12.071 7.33338 12.8667 7.33338ZM12.8667 2.66671C13.1963 2.66671 13.5185 2.76446 13.7926 2.94759C14.0667 3.13073 14.2803 3.39103 14.4065 3.69557C14.5326 4.00011 14.5656 4.33522 14.5013 4.65853C14.437 4.98183 14.2783 5.2788 14.0452 5.51189C13.8121 5.74497 13.5151 5.90371 13.1918 5.96802C12.8685 6.03233 12.5334 5.99932 12.2289 5.87317C11.9243 5.74703 11.664 5.53341 11.4809 5.25933C11.2978 4.98524 11.2 4.66301 11.2 4.33338C11.2 3.89135 11.3756 3.46742 11.6882 3.15486C12.0007 2.8423 12.4246 2.66671 12.8667 2.66671Z" fill="black"/>
<path d="M7.87333 9.99996C7.91333 9.99996 12.0533 9.4533 13.0267 9.3333C13.46 9.26663 13.7867 9.3333 13.8933 9.4333C14 9.5333 14.0333 9.96663 13.8467 10.5533C13.44 11.7933 11.3867 17.8866 10.7867 19.6933C11.0799 19.6331 11.3676 19.5484 11.6467 19.44C11.9135 19.3296 12.1701 19.1957 12.4133 19.04C13.2333 16.6666 14.7667 12.0666 15.1133 11.0133C15.46 9.95996 15.3733 9.15996 14.9133 8.6133C14.6509 8.34723 14.3224 8.15576 13.9616 8.05853C13.6008 7.96129 13.2206 7.96179 12.86 8.05996C11.9067 8.15996 7.87999 8.68663 7.70666 8.72663C7.52985 8.74962 7.36941 8.8419 7.26064 8.98318C7.15187 9.12445 7.10367 9.30315 7.12666 9.47996C7.14965 9.65677 7.24193 9.81721 7.38321 9.92598C7.52448 10.0348 7.70318 10.0829 7.87999 10.06L7.87333 9.99996Z" fill="black"/>
</g>
<defs>
<clipPath id="clip0_902_1564">
<rect width="24" height="24" fill="white"/>
</clipPath>
</defs>
</svg>
