<svg width="34" height="34" viewBox="0 0 34 34" fill="none" xmlns="http://www.w3.org/2000/svg">
<rect width="34" height="34" rx="17" fill="white"/>
<path d="M22 11C24.3456 11 25.0184 11 25.8263 11.6199C26.0343 11.7795 26.2205 11.9657 26.3801 12.1737C27 12.9816 27 14.1544 27 16.5V21C27 23.8284 27 25.2426 26.1213 26.1213C25.2426 27 23.8284 27 21 27H13C10.1716 27 8.75736 27 7.87868 26.1213C7 25.2426 7 23.8284 7 21V16.5C7 14.1544 7 12.9816 7.61994 12.1737C7.77954 11.9657 7.96572 11.7795 8.17372 11.6199C8.98164 11 9.65442 11 12 11" stroke="#2A353D" stroke-width="1.5" stroke-linecap="round"/>
<path d="M22 12L21.1142 9.78543C20.732 8.82996 20.3994 7.7461 19.4166 7.25955C18.8924 7 18.2616 7 17 7C15.7384 7 15.1076 7 14.5834 7.25955C13.6006 7.7461 13.268 8.82996 12.8858 9.78543L12 12" stroke="#2A353D" stroke-width="1.5" stroke-linecap="round" stroke-linejoin="round"/>
<path d="M20.5 19C20.5 20.933 18.933 22.5 17 22.5C15.067 22.5 13.5 20.933 13.5 19C13.5 17.067 15.067 15.5 17 15.5C18.933 15.5 20.5 17.067 20.5 19Z" stroke="#2A353D" stroke-width="1.5"/>
<path d="M16.9998 11H17.0088" stroke="#2A353D" stroke-width="2" stroke-linecap="round" stroke-linejoin="round"/>
</svg>
