<svg width="24" height="24" viewBox="0 0 24 24" fill="none" xmlns="http://www.w3.org/2000/svg">
<path d="M16.755 2H7.245C6.086 2 5.507 2 5.039 2.163C4.59778 2.31946 4.19856 2.5755 3.87234 2.91126C3.54612 3.24702 3.30168 3.65345 3.158 4.099C3 4.581 3 5.177 3 6.37V20.374C3 21.232 3.985 21.688 4.608 21.118C4.78279 20.9565 5.01202 20.8668 5.25 20.8668C5.48798 20.8668 5.71721 20.9565 5.892 21.118L6.375 21.56C6.68121 21.8432 7.08293 22.0004 7.5 22.0004C7.91707 22.0004 8.31879 21.8432 8.625 21.56C8.93121 21.2768 9.33293 21.1196 9.75 21.1196C10.1671 21.1196 10.5688 21.2768 10.875 21.56C11.1812 21.8432 11.5829 22.0004 12 22.0004C12.4171 22.0004 12.8188 21.8432 13.125 21.56C13.4312 21.2768 13.8329 21.1196 14.25 21.1196C14.6671 21.1196 15.0688 21.2768 15.375 21.56C15.6812 21.8432 16.0829 22.0004 16.5 22.0004C16.9171 22.0004 17.3188 21.8432 17.625 21.56L18.108 21.118C18.2828 20.9565 18.512 20.8668 18.75 20.8668C18.988 20.8668 19.2172 20.9565 19.392 21.118C20.015 21.688 21 21.232 21 20.374V6.37C21 5.177 21 4.58 20.842 4.1C20.6985 3.65423 20.4542 3.24757 20.1279 2.91162C19.8017 2.57567 19.4024 2.31949 18.961 2.163C18.493 2 17.914 2 16.755 2Z" stroke="black" stroke-width="1.5"/>
<path d="M10.5 11H17M7 11H7.5M7 7.5H7.5M7 14.5H7.5M10.5 7.5H17M10.5 14.5H17" stroke="black" stroke-width="1.5" stroke-linecap="round"/>
</svg>
