<svg width="34" height="34" viewBox="0 0 34 34" fill="none" xmlns="http://www.w3.org/2000/svg">
<rect width="34" height="34" rx="17" fill="white"/>
<path d="M7.5 17C7.5 12.5217 7.5 10.2825 8.89124 8.89124C10.2825 7.5 12.5217 7.5 17 7.5C21.4783 7.5 23.7175 7.5 25.1088 8.89124C26.5 10.2825 26.5 12.5217 26.5 17C26.5 21.4783 26.5 23.7175 25.1088 25.1088C23.7175 26.5 21.4783 26.5 17 26.5C12.5217 26.5 10.2825 26.5 8.89124 25.1088C7.5 23.7175 7.5 21.4783 7.5 17Z" stroke="#2A353D" stroke-width="1.5"/>
<circle cx="21.5" cy="12.5" r="1.5" stroke="#2A353D" stroke-width="1.5"/>
<path d="M7 19.1354C7.66663 19.0455 8.3406 19.0011 9.01569 19.0027C11.8716 18.9466 14.6576 19.7729 16.8765 21.3342C18.9345 22.7821 20.3805 24.7749 21 27" stroke="#2A353D" stroke-width="1.5" stroke-linejoin="round"/>
<path d="M18 23C19.7015 21.6733 21.5345 20.9928 23.3862 21.0001C24.4362 20.999 25.4812 21.2216 26.5 21.6617" stroke="#2A353D" stroke-width="1.5" stroke-linejoin="round"/>
</svg>
