<svg width="24" height="24" viewBox="0 0 24 24" fill="none" xmlns="http://www.w3.org/2000/svg">
<path d="M7.5 7.68744C7.5 7.68744 7.5675 6.14056 9.07219 4.90025C9.96562 4.16385 11.0386 3.95056 12 3.93744C12.878 3.92666 13.6627 4.07525 14.1319 4.304C14.9339 4.69681 16.5 5.65306 16.5 7.68744C16.5 9.82822 15.1322 10.7985 13.5773 11.8678C12.0225 12.937 11.625 13.9856 11.625 15.1874" stroke="black" stroke-width="1.5" stroke-miterlimit="10" stroke-linecap="round"/>
<path d="M11.7 19.25C12.2523 19.25 12.7 18.8023 12.7 18.25C12.7 17.6977 12.2523 17.25 11.7 17.25C11.1477 17.25 10.7 17.6977 10.7 18.25C10.7 18.8023 11.1477 19.25 11.7 19.25Z" fill="black"/>
</svg>
