<svg width="24" height="24" viewBox="0 0 24 24" fill="none" xmlns="http://www.w3.org/2000/svg">
<path d="M14.945 1.25C13.578 1.25 12.475 1.25 11.608 1.367C10.708 1.487 9.94999 1.747 9.34799 2.348C8.82399 2.873 8.55799 3.518 8.41899 4.276C8.28399 5.013 8.25799 5.914 8.25199 6.996C8.25093 7.19491 8.32893 7.3861 8.46884 7.5275C8.60874 7.6689 8.79908 7.74894 8.99799 7.75C9.19691 7.75106 9.38809 7.67306 9.5295 7.53316C9.6709 7.39326 9.75093 7.20291 9.75199 7.004C9.75799 5.911 9.78599 5.136 9.89399 4.547C9.99899 3.981 10.166 3.652 10.409 3.409C10.686 3.132 11.075 2.952 11.809 2.853C12.564 2.752 13.565 2.75 15 2.75H16C17.436 2.75 18.437 2.752 19.192 2.853C19.926 2.952 20.314 3.133 20.592 3.409C20.868 3.686 21.048 4.074 21.147 4.809C21.249 5.563 21.25 6.565 21.25 8V16C21.25 17.435 21.249 18.436 21.147 19.192C21.048 19.926 20.868 20.314 20.591 20.591C20.314 20.868 19.926 21.048 19.192 21.147C18.437 21.248 17.436 21.25 16 21.25H15C13.565 21.25 12.564 21.248 11.808 21.147C11.075 21.048 10.686 20.867 10.409 20.591C10.166 20.347 9.99899 20.019 9.89399 19.453C9.78599 18.864 9.75799 18.089 9.75199 16.996C9.75147 16.8975 9.73155 16.8001 9.69337 16.7093C9.6552 16.6185 9.59951 16.5361 9.5295 16.4668C9.45948 16.3976 9.37651 16.3428 9.28531 16.3056C9.19412 16.2684 9.09649 16.2495 8.99799 16.25C8.8995 16.2505 8.80208 16.2704 8.71129 16.3086C8.62049 16.3468 8.53811 16.4025 8.46884 16.4725C8.39956 16.5425 8.34476 16.6255 8.30755 16.7167C8.27035 16.8079 8.25147 16.9055 8.25199 17.004C8.25799 18.086 8.28399 18.987 8.41899 19.724C8.55899 20.482 8.82399 21.127 9.34899 21.652C9.94999 22.254 10.709 22.512 11.609 22.634C12.475 22.75 13.578 22.75 14.945 22.75H16.055C17.423 22.75 18.525 22.75 19.392 22.634C20.292 22.512 21.05 22.254 21.652 21.652C22.254 21.05 22.512 20.292 22.634 19.392C22.75 18.525 22.75 17.422 22.75 16.055V7.945C22.75 6.578 22.75 5.475 22.634 4.608C22.513 3.708 22.254 2.95 21.652 2.348C21.05 1.746 20.292 1.488 19.392 1.367C18.525 1.25 17.422 1.25 16.055 1.25H14.945Z" fill="black"/>
<path d="M15 11.25C15.1989 11.25 15.3897 11.329 15.5303 11.4697C15.671 11.6103 15.75 11.8011 15.75 12C15.75 12.1989 15.671 12.3897 15.5303 12.5303C15.3897 12.671 15.1989 12.75 15 12.75H4.02699L5.98799 14.43C6.13917 14.5594 6.23273 14.7436 6.24811 14.942C6.26349 15.1404 6.19942 15.3368 6.06999 15.488C5.94057 15.6392 5.75639 15.7327 5.55798 15.7481C5.35956 15.7635 5.16317 15.6994 5.01199 15.57L1.51199 12.57C1.42966 12.4996 1.36355 12.4122 1.31823 12.3138C1.27291 12.2154 1.24944 12.1083 1.24944 12C1.24944 11.8917 1.27291 11.7846 1.31823 11.6862C1.36355 11.5878 1.42966 11.5004 1.51199 11.43L5.01199 8.43C5.08685 8.36591 5.17359 8.3172 5.26727 8.28664C5.36095 8.25607 5.45973 8.24426 5.55798 8.25188C5.65622 8.25949 5.752 8.28638 5.83986 8.33101C5.92771 8.37565 6.00591 8.43714 6.06999 8.512C6.13408 8.58685 6.18279 8.67359 6.21335 8.76727C6.24392 8.86095 6.25573 8.95973 6.24811 9.05798C6.2405 9.15622 6.21361 9.25201 6.16898 9.33986C6.12434 9.42771 6.06285 9.50591 5.98799 9.57L4.02799 11.25H15Z" fill="black"/>
</svg>
