<svg width="24" height="24" viewBox="0 0 24 24" fill="none" xmlns="http://www.w3.org/2000/svg">
<g clip-path="url(#clip0_36_68)">
<path d="M22.9091 10.3645V12.0009C22.9091 17.1434 22.9091 19.7147 21.3109 21.3118C19.7149 22.91 17.1425 22.91 12 22.91C6.85746 22.91 4.28618 22.91 2.688 21.3118C1.09091 19.7158 1.09091 17.1434 1.09091 12.0009C1.09091 6.85834 1.09091 4.28707 2.688 2.68889C4.28728 1.0918 6.85746 1.0918 12 1.0918H13.6364" stroke="black" stroke-width="1.5" stroke-linecap="round"/>
<path d="M20.7273 5.45543C21.9323 5.45543 22.9091 4.4786 22.9091 3.27361C22.9091 2.06863 21.9323 1.0918 20.7273 1.0918C19.5223 1.0918 18.5455 2.06863 18.5455 3.27361C18.5455 4.4786 19.5223 5.45543 20.7273 5.45543Z" stroke="black" stroke-width="1.5"/>
<path d="M8.80064 16.7414C8.57489 16.8014 8.33734 16.801 8.11178 16.7404C7.88621 16.6797 7.68055 16.5608 7.51538 16.3956C7.35021 16.2305 7.23133 16.0248 7.17064 15.7992C7.10995 15.5737 7.10959 15.3361 7.16958 15.1104M16.9418 12.6261C17.6919 11.8759 18.1134 10.8585 18.1134 9.79763C18.1134 8.73676 17.6919 7.71935 16.9418 6.9692C16.1917 6.21906 15.1742 5.79763 14.1134 5.79763C13.0525 5.79763 12.0351 6.21906 11.2849 6.9692C7.98511 10.269 5.62809 9.79763 5.62809 9.79763L14.1134 18.2829C14.1134 18.2829 13.642 15.9259 16.9418 12.6261Z" stroke="black" stroke-width="1.5" stroke-linecap="round" stroke-linejoin="round"/>
</g>
<defs>
<clipPath id="clip0_36_68">
<rect width="24" height="24" fill="white"/>
</clipPath>
</defs>
</svg>
